<svg xmlns="http://www.w3.org/2000/svg" width="42" height="40" fill="none"><path fill="#C1ECC0" d="M9.6 18.2c.1-.6.5-1.2 1-1.4.1-.1.3-.1.3-.2.1-.1.1-.3.1-.5 0-.4.2-.7.4-1.1.8-1.2 1.6-2.4 2.8-3.1.7-.4 1.5-.7 2.3-.9 2-.5 4.2-.8 6.3-.5 2.1.2 4.2 1 5.8 2.3.7.5 1.2 1.2 1.5 2 .2.7.2 1.6.8 2.1.3.2.6.3.9.5.6.5.6 1.5.3 2.2-.1.2-.2.3-.2.5-.1.5.5.9.5 1.5 0 .7-.8 1-1.2 1.4-.3.4-.5.8-.6 1.3-.3.9-.6 1.8-1.1 2.6-.5.8-1.3 1.5-2.2 1.7-.5.1-1 .1-1.5.2-.3.1-.6.2-.9.2-.5.1-1 .1-1.6.1-1.5 0-2.9-.1-4.4-.1-.9 0-1.8 0-2.6-.3-1.1-.3-2-1-2.8-1.9-.5-.6-1-1.2-1.2-1.9-.2-.7-.2-1.6-.9-2-.2-.2-.5-.2-.8-.4-.4-.3-.5-.8-.5-1.2 0-.5.4-1 .3-1.5-.4-.6-.9-.9-.8-1.6Z"/><path fill="#000" d="M9.7 16.1c-1 .3-1.7 1.2-1.7 2.3 0 .6.2 1.2.6 1.6-.4.4-.6 1-.6 1.6 0 1.1.7 2 1.7 2.3.8 3.8 4.1 6.6 8 6.6h6.4c3.9 0 7.3-2.8 8-6.6 1-.3 1.7-1.2 1.7-2.3 0-.6-.2-1.2-.6-1.6.4-.4.6-1 .6-1.6 0-1.1-.7-2-1.7-2.3-.8-3.8-4.1-6.6-8-6.6h-6.4c-3.9 0-7.2 2.8-8 6.6Zm14.4 12.8h-6.4c-3 0-5.6-2-6.3-4.8h19c-.8 2.7-3.3 4.8-6.3 4.8Zm8.1-7.3c0 .4-.4.8-.8.8h-21c-.4 0-.8-.4-.8-.8s.4-.8.8-.8h21c.4 0 .8.4.8.8Zm-2.8-4h1.9c.4 0 .8.4.8.8s-.4.8-.8.8h-21c-.4 0-.8-.4-.8-.8s.4-.8.8-.8h1.9l.6-.6c.1-.1.3-.2.4-.2h.5c.2 0 .3.1.4.2.4.4 1 .6 1.5.6h.5c.6 0 1.1-.2 1.5-.6.1-.1.3-.2.4-.2h.5c.2 0 .3.1.4.2.4.4 1 .6 1.5.6h.5c.6 0 1.1-.2 1.5-.6.1-.1.3-.2.4-.2h.5c.2 0 .3.1.4.2.4.4 1 .6 1.5.6h.8c.6 0 1.1-.2 1.5-.6.1-.1.3-.2.4-.2h.5c.2 0 .3.1.4.2l.6.6Zm-5.3-6.5c3 0 5.6 2 6.3 4.8h-.3l-.2-.2c-.4-.4-1-.6-1.5-.6h-.5c-.6 0-1.1.2-1.5.6-.1.2-.3.3-.4.3h-.5c-.2 0-.3-.1-.4-.2-.4-.4-1-.6-1.5-.6h-.5c-.6 0-1.1.2-1.5.6-.1.1-.3.2-.4.2h-.5c-.2 0-.3-.1-.4-.2-.4-.4-1-.6-1.5-.6h-.5c-.6 0-1.1.2-1.5.6-.1.1-.3.2-.4.2h-.5c-.2 0-.3-.1-.4-.2-.4-.4-1-.6-1.5-.6h-.5c-.6 0-1.1.2-1.5.6l-.3.2h-.3c.8-2.8 3.3-4.8 6.3-4.8h6.4v-.1ZM31.2 2.8c0 .4-.4.8-.8.8h-1.2v1.2c0 .4-.4.8-.8.8s-.8-.4-.8-.8V3.7h-1.2c-.4 0-.8-.4-.8-.8s.2-.9.7-.9h1.2V.8c0-.4.4-.8.8-.8s.8.4.8.8V2h1.2c.5 0 .9.4.9.8ZM41.8 26.7c0 .4-.4.8-.8.8h-1.2v1.2c0 .4-.4.8-.8.8s-.8-.4-.8-.8v-1.2H37c-.4 0-.8-.4-.8-.8s.4-.8.8-.8h1.2v-1.2c0-.4.4-.8.8-.8s.8.4.8.8v1.2H41c.5 0 .8.3.8.8ZM5.7 11.4c0 .4-.4.8-.8.8H3.7v1.2c0 .4-.4.8-.8.8s-.9-.3-.9-.8v-1.2H.8c-.4 0-.8-.4-.8-.8s.4-.8.8-.8H2V9.3c0-.4.4-.8.8-.8s.8.4.8.8v1.2h1.2c.5.1.9.4.9.9ZM16.4 36.4c0 .4-.4.8-.8.8h-1.2v1.2c0 .4-.4.8-.8.8s-.8-.4-.8-.8v-1.2h-1.2c-.4 0-.8-.4-.8-.8s.4-.8.8-.8h1.2v-1.2c0-.4.4-.8.8-.8s.8.4.8.8v1.2h1.2c.4 0 .8.3.8.8ZM38.4 11.9a1.4 1.4 0 1 0 0-2.8 1.4 1.4 0 0 0 0 2.8ZM29.1 37.9a1.4 1.4 0 1 0 0-2.8 1.4 1.4 0 0 0 0 2.8ZM2 29.5a1.4 1.4 0 1 0 0-2.8 1.4 1.4 0 0 0 0 2.8ZM12.7 3.8a1.4 1.4 0 1 0 0-2.8 1.4 1.4 0 0 0 0 2.8Z"/></svg>