<svg width="13" height="16" fill="none" xmlns="http://www.w3.org/2000/svg"><g fill="#000"><path d="M6.118 8.47a4.24 4.24 0 0 0 4.235-4.235A4.24 4.24 0 0 0 6.118 0a4.24 4.24 0 0 0-4.236 4.235 4.24 4.24 0 0 0 4.236 4.236Zm0-6.352a2.12 2.12 0 0 1 2.117 2.117 2.12 2.12 0 0 1-2.117 2.118A2.12 2.12 0 0 1 4 4.235a2.12 2.12 0 0 1 2.118-2.117Z"/><path d="M11.916 7.825a1.158 1.158 0 0 0-1.546 0c-2.344 2.161-6.159 2.161-8.504 0a1.158 1.158 0 0 0-1.545 0 .953.953 0 0 0 0 1.426c1.36 1.254 3.083 1.969 4.86 2.155L2.066 14.28a.952.952 0 0 0 0 1.425 1.158 1.158 0 0 0 1.546 0l2.507-2.311 2.506 2.31c.213.197.493.296.773.296s.56-.099.773-.295a.952.952 0 0 0 0-1.425l-3.117-2.874c1.778-.186 3.502-.9 4.862-2.155a.954.954 0 0 0 0-1.426Z"/></g></svg>