<svg xmlns="http://www.w3.org/2000/svg" width="272" height="48" fill="none"><path fill="#292929" d="m58.23 21-.021-10.208-5.06 8.448h-1.276l-5.06-8.316V21h-2.728V5.6h2.354l6.116 10.208L58.56 5.6h2.354l.022 15.4H58.23Zm16.854-3.564h-7.7L65.866 21h-2.948l6.93-15.4h2.816L79.616 21h-2.992l-1.54-3.564Zm-.946-2.244L71.234 8.46l-2.882 6.732h5.786Zm14.35 6.028c-1.555 0-2.963-.337-4.224-1.012a7.721 7.721 0 0 1-2.948-2.838c-.704-1.203-1.056-2.56-1.056-4.07 0-1.51.36-2.867 1.078-4.07a7.561 7.561 0 0 1 2.948-2.816c1.261-.69 2.67-1.034 4.224-1.034 1.261 0 2.413.22 3.454.66a7.046 7.046 0 0 1 2.64 1.914l-1.848 1.738c-1.115-1.203-2.486-1.804-4.114-1.804-1.056 0-2.002.235-2.838.704a4.917 4.917 0 0 0-1.958 1.914c-.47.821-.704 1.753-.704 2.794 0 1.041.235 1.973.704 2.794a5.069 5.069 0 0 0 1.958 1.936c.836.455 1.782.682 2.838.682 1.628 0 3-.609 4.114-1.826l1.848 1.76a7.008 7.008 0 0 1-2.662 1.914c-1.041.44-2.193.66-3.454.66Zm18.522-3.784h-7.7L97.792 21h-2.948l6.93-15.4h2.816l6.952 15.4h-2.992l-1.54-3.564Zm-.946-2.244L103.16 8.46l-2.882 6.732h5.786ZM123.577 21l-3.146-4.51c-.132.015-.33.022-.594.022h-3.476V21h-2.86V5.6h6.336c1.334 0 2.493.22 3.476.66.997.44 1.76 1.07 2.288 1.892.528.821.792 1.797.792 2.926 0 1.159-.286 2.156-.858 2.992-.558.836-1.364 1.46-2.42 1.87l3.542 5.06h-3.08Zm-.066-9.922c0-.983-.323-1.738-.968-2.266-.646-.528-1.592-.792-2.838-.792h-3.344v6.138h3.344c1.246 0 2.192-.264 2.838-.792.645-.543.968-1.305.968-2.288Zm13.275 10.142c-1.569 0-2.984-.337-4.246-1.012a7.684 7.684 0 0 1-2.97-2.838c-.718-1.217-1.078-2.574-1.078-4.07 0-1.496.36-2.845 1.078-4.048a7.48 7.48 0 0 1 2.97-2.838c1.262-.69 2.677-1.034 4.246-1.034 1.57 0 2.985.345 4.246 1.034a7.513 7.513 0 0 1 2.97 2.816c.719 1.203 1.078 2.56 1.078 4.07 0 1.51-.359 2.867-1.078 4.07a7.67 7.67 0 0 1-2.97 2.838c-1.261.675-2.676 1.012-4.246 1.012Zm0-2.508c1.027 0 1.951-.227 2.772-.682a5.106 5.106 0 0 0 1.936-1.936c.47-.836.704-1.767.704-2.794 0-1.027-.234-1.95-.704-2.772a4.91 4.91 0 0 0-1.936-1.936c-.821-.47-1.745-.704-2.772-.704-1.026 0-1.95.235-2.772.704a4.922 4.922 0 0 0-1.936 1.936c-.469.821-.704 1.745-.704 2.772 0 1.027.235 1.958.704 2.794a5.12 5.12 0 0 0 1.936 1.936c.822.455 1.746.682 2.772.682ZM161.796 5.6V21h-2.354l-8.492-10.428V21h-2.838V5.6h2.354l8.492 10.428V5.6h2.838Zm8.9 15.62c-1.188 0-2.339-.169-3.454-.506-1.1-.337-1.972-.785-2.618-1.342l.99-2.222c.631.499 1.401.91 2.31 1.232a8.72 8.72 0 0 0 2.772.462c1.144 0 1.995-.183 2.552-.55.572-.367.858-.85.858-1.452 0-.44-.161-.8-.484-1.078-.308-.293-.704-.52-1.188-.682a26.73 26.73 0 0 0-1.98-.55c-1.173-.279-2.126-.557-2.86-.836a4.847 4.847 0 0 1-1.87-1.298c-.513-.601-.77-1.408-.77-2.42 0-.85.228-1.62.682-2.31.47-.704 1.166-1.261 2.09-1.672.939-.41 2.083-.616 3.432-.616.939 0 1.863.117 2.772.352.91.235 1.694.572 2.354 1.012l-.902 2.222a8.875 8.875 0 0 0-2.112-.902 7.895 7.895 0 0 0-2.134-.308c-1.129 0-1.972.19-2.53.572-.542.381-.814.887-.814 1.518 0 .44.154.8.462 1.078.323.279.726.499 1.21.66a26.73 26.73 0 0 0 1.98.55c1.144.264 2.083.543 2.816.836a4.628 4.628 0 0 1 1.87 1.298c.528.587.792 1.379.792 2.376 0 .85-.234 1.62-.704 2.31-.454.69-1.151 1.24-2.09 1.65-.938.41-2.082.616-3.432.616ZM193.442 5.6V21h-2.86v-6.6h-7.964V21h-2.86V5.6h2.86v6.358h7.964V5.6h2.86Zm11.321 15.62c-1.569 0-2.985-.337-4.246-1.012a7.684 7.684 0 0 1-2.97-2.838c-.719-1.217-1.078-2.574-1.078-4.07 0-1.496.359-2.845 1.078-4.048a7.48 7.48 0 0 1 2.97-2.838c1.261-.69 2.677-1.034 4.246-1.034 1.569 0 2.985.345 4.246 1.034a7.527 7.527 0 0 1 2.97 2.816c.719 1.203 1.078 2.56 1.078 4.07 0 1.51-.359 2.867-1.078 4.07a7.684 7.684 0 0 1-2.97 2.838c-1.261.675-2.677 1.012-4.246 1.012Zm0-2.508c1.027 0 1.951-.227 2.772-.682a5.113 5.113 0 0 0 1.936-1.936c.469-.836.704-1.767.704-2.794 0-1.027-.235-1.95-.704-2.772a4.916 4.916 0 0 0-1.936-1.936c-.821-.47-1.745-.704-2.772-.704-1.027 0-1.951.235-2.772.704a4.916 4.916 0 0 0-1.936 1.936c-.469.821-.704 1.745-.704 2.772 0 1.027.235 1.958.704 2.794a5.113 5.113 0 0 0 1.936 1.936c.821.455 1.745.682 2.772.682ZM222.425 5.6c1.334 0 2.493.22 3.476.66.997.44 1.76 1.07 2.288 1.892.528.821.792 1.797.792 2.926 0 1.115-.264 2.09-.792 2.926-.528.821-1.291 1.452-2.288 1.892-.983.44-2.142.66-3.476.66h-3.476V21h-2.86V5.6h6.336Zm-.132 8.536c1.246 0 2.192-.264 2.838-.792.645-.528.968-1.283.968-2.266 0-.983-.323-1.738-.968-2.266-.646-.528-1.592-.792-2.838-.792h-3.344v6.116h3.344ZM98.554 44.112a7.65 7.65 0 0 1-2.032-.272c-.662-.181-1.19-.41-1.584-.688l.768-1.52c.384.256.842.464 1.376.624a6.03 6.03 0 0 0 1.6.224c1.194 0 1.792-.315 1.792-.944 0-.299-.155-.507-.464-.624-.3-.117-.784-.23-1.456-.336-.704-.107-1.28-.23-1.728-.368a2.736 2.736 0 0 1-1.152-.72c-.32-.352-.48-.837-.48-1.456 0-.81.336-1.456 1.008-1.936.682-.49 1.6-.736 2.752-.736.586 0 1.173.07 1.76.208.586.128 1.066.304 1.44.528l-.768 1.52c-.726-.427-1.542-.64-2.448-.64-.587 0-1.035.09-1.344.272-.3.17-.448.4-.448.688 0 .32.16.55.48.688.33.128.837.25 1.52.368.682.107 1.242.23 1.68.368.437.139.81.373 1.12.704.32.33.48.8.48 1.408 0 .8-.347 1.44-1.04 1.92-.694.48-1.638.72-2.832.72Zm5.594-8.656h2V44h-2v-8.544Zm1.008-1.408a1.3 1.3 0 0 1-.912-.336 1.15 1.15 0 0 1-.368-.864 1.1 1.1 0 0 1 .368-.848c.245-.235.549-.352.912-.352a1.3 1.3 0 0 1 .912.336c.245.213.368.485.368.816 0 .352-.123.65-.368.896-.235.235-.539.352-.912.352Zm8.465 1.312c1.077 0 1.941.315 2.592.944.651.63.976 1.563.976 2.8V44h-2v-4.64c0-.747-.176-1.307-.528-1.68-.352-.384-.853-.576-1.504-.576-.736 0-1.317.224-1.744.672-.427.437-.64 1.072-.64 1.904V44h-2v-8.544h1.904v1.104a3.131 3.131 0 0 1 1.248-.896c.501-.203 1.067-.304 1.696-.304Zm10.103 8.752c-.885 0-1.68-.187-2.384-.56A4.131 4.131 0 0 1 119.692 42c-.394-.672-.592-1.43-.592-2.272 0-.843.198-1.595.592-2.256a4.16 4.16 0 0 1 1.632-1.552c.704-.373 1.504-.56 2.4-.56.843 0 1.579.17 2.208.512.64.341 1.12.832 1.44 1.472l-1.536.896a2.354 2.354 0 0 0-.928-.88 2.414 2.414 0 0 0-1.2-.304c-.746 0-1.365.245-1.856.736-.49.48-.736 1.125-.736 1.936 0 .81.24 1.461.72 1.952.491.48 1.115.72 1.872.72a2.52 2.52 0 0 0 1.2-.288c.374-.203.683-.501.928-.896l1.536.896a3.495 3.495 0 0 1-1.456 1.488c-.629.341-1.36.512-2.192.512Zm13.284-4.336c0 .139-.011.336-.032.592h-6.704c.117.63.421 1.13.912 1.504.501.363 1.12.544 1.856.544.939 0 1.712-.31 2.32-.928l1.072 1.232a3.61 3.61 0 0 1-1.456 1.04c-.587.235-1.248.352-1.984.352-.939 0-1.765-.187-2.48-.56A4.104 4.104 0 0 1 128.848 42c-.384-.672-.576-1.43-.576-2.272 0-.832.187-1.579.56-2.24a4.069 4.069 0 0 1 1.584-1.568c.672-.373 1.429-.56 2.272-.56.832 0 1.573.187 2.224.56.661.363 1.173.88 1.536 1.552.373.661.56 1.43.56 2.304Zm-4.32-2.816c-.64 0-1.184.192-1.632.576-.437.373-.704.875-.8 1.504h4.848c-.085-.619-.347-1.12-.784-1.504-.437-.384-.981-.576-1.632-.576Zm18.167 5.28V44h-8.256v-1.392l4.448-4.224c.501-.48.837-.896 1.008-1.248.181-.363.272-.72.272-1.072 0-.523-.176-.923-.528-1.2-.352-.277-.869-.416-1.552-.416-1.141 0-2.016.39-2.624 1.168l-1.456-1.12c.437-.587 1.024-1.04 1.76-1.36.747-.33 1.579-.496 2.496-.496 1.216 0 2.187.288 2.912.864.725.576 1.088 1.36 1.088 2.352 0 .608-.128 1.179-.384 1.712-.256.533-.747 1.141-1.472 1.824l-2.992 2.848h5.28Zm5.826 1.92c-.896 0-1.696-.224-2.4-.672-.704-.459-1.259-1.12-1.664-1.984-.406-.875-.608-1.91-.608-3.104 0-1.195.202-2.224.608-3.088.405-.875.96-1.536 1.664-1.984.704-.459 1.504-.688 2.4-.688.896 0 1.696.23 2.4.688.714.448 1.274 1.11 1.68 1.984.405.864.608 1.893.608 3.088s-.203 2.23-.608 3.104c-.406.864-.966 1.525-1.68 1.984-.704.448-1.504.672-2.4.672Zm0-1.808c.8 0 1.429-.33 1.888-.992.469-.661.704-1.648.704-2.96s-.235-2.299-.704-2.96c-.459-.661-1.088-.992-1.888-.992-.79 0-1.419.33-1.888.992-.459.661-.688 1.648-.688 2.96s.229 2.299.688 2.96c.469.661 1.098.992 1.888.992Zm9.887-9.552V44h-2.08v-9.456h-2.368V32.8h4.448Zm6.99 4.624c1.035.128 1.824.48 2.368 1.056.544.576.816 1.296.816 2.16a3.3 3.3 0 0 1-.496 1.776c-.331.533-.832.96-1.504 1.28-.661.31-1.472.464-2.432.464-.8 0-1.573-.112-2.32-.336-.736-.235-1.365-.555-1.888-.96l.896-1.616c.405.341.896.613 1.472.816a5.777 5.777 0 0 0 1.808.288c.736 0 1.312-.15 1.728-.448.427-.31.64-.725.64-1.248s-.203-.928-.608-1.216c-.395-.299-1.003-.448-1.824-.448h-1.024v-1.424l2.544-3.024h-5.088V32.8h7.632v1.392l-2.72 3.232Z"/><path stroke="#000" stroke-width="1.5" d="M186 38.25h29M57 38.25h29"/></svg>