<svg xmlns="http://www.w3.org/2000/svg" width="69" height="61" fill="none"><g clip-path="url(#a)"><path fill="#F281A3" d="M63.65 26.525c2.941 9.2-7.027 20.596-22.264 25.468-15.333 4.822-30.063 1.322-32.982-7.806-.163-.51-.254-1.045-.322-1.506-1.48-8.863 8.238-19.294 22.682-23.912 14.443-4.618 28.41-1.76 32.37 6.391.117.365.352.854.516 1.365Z"/><path fill="#EE5D7C" d="M63.038 25.11c.22 2.184-.831 4.37-1.503 7-.672 2.63-2.061 5.005-4.95 5.929-1.444.462-2.846 1.554-3.77 2.895-1.46 2.157-3.992 3.45-6.539 3.7-2.234.232-4.57 1.14-6.503 2.563-3.189 2.226-6.339 2.831-9.813 2.171-3.139-.606-6.212-.509-8.882.103-3.92.932-6.6.018-9.026-2.587-1.473-1.621-3.145-2.616-4.043-4.18-1.48-8.863 8.239-19.294 22.682-23.912 14.42-4.69 28.388-1.832 32.347 6.318Z"/><path fill="#AAD7D4" d="M62.156 21.851c.817 2.556-.477 4.982-1.25 8.046-.67 2.629-2.06 5.005-4.949 5.928-1.444.462-2.846 1.554-3.77 2.896-1.532 2.18-3.992 3.449-6.538 3.7-2.235.231-4.571 1.14-6.504 2.562-3.189 2.227-6.339 2.831-9.813 2.171-3.139-.606-6.212-.508-8.858.177-3.994.954-6.697-.032-9.122-2.638-1.711-1.867-3.765-3.061-4.442-5.179-2.521-7.886 7.797-18.187 23.034-23.059 15.238-4.871 29.69-2.49 32.212 5.396Z"/><path fill="#EE5D7C" d="M60.568 16.886c2.942 9.2-7.05 20.524-22.287 25.395-15.31 4.895-30.04 1.395-32.958-7.732-.28-.877-.416-1.799-.48-2.744-.45-8.63 9.023-18.338 22.743-22.725 13.721-4.386 27.142-1.997 31.78 5.293a10.54 10.54 0 0 1 1.202 2.513Z"/><path fill="#F281A3" d="M59.366 14.373c.427 8.555-9.045 18.264-22.838 22.674-13.794 4.41-27.07 1.974-31.685-5.242-.45-8.63 9.022-18.338 22.743-22.725 13.721-4.386 27.141-1.997 31.78 5.293Z"/><path fill="#F2AEBD" d="M31.313 13.764c1.968 2.67-1.372 8.407-7.364 12.818-5.993 4.41-12.44 5.908-14.384 3.31-1.968-2.67 1.372-8.406 7.364-12.817 5.97-4.484 12.439-5.908 14.384-3.31Z"/><path fill="#EE3686" d="M41.107 19.003c-.29.093-.126.604.163.511.338-.188.198-.626-.163-.51ZM43.29 13.88c-.94.3-.473 1.76.466 1.46.939-.3.472-1.761-.467-1.46ZM34.712 25.394c-.938.3-.472 1.76.467 1.46 1.035-.25.544-1.784-.467-1.46ZM23.185 31.413l-.072.023c-.29.093-.126.604.163.512l.072-.024c.29-.092.126-.603-.163-.51ZM31.916 21.378c-.072.023 0 0 0 0-.358-.126-.603.354-.316.504.168.027.263.077.48.008.361-.116.198-.627-.163-.512ZM32.303 10.39c-.289.092-.125.603.164.51.288-.092.125-.603-.164-.51ZM27.76 32.526l-.217.07c-.939.3-.449 1.833.49 1.533l.217-.07c.988-.396.52-1.856-.49-1.533ZM9.298 30.3c-.431-.104-.818.181-.918.615a.876.876 0 0 0-.03.654c.14.438.595.615.956.5.36-.116.556-.5.512-.889.195-.384-.185-.826-.52-.88ZM45.18 27.762c-.939.3-.472 1.76.467 1.46 1.011-.323.544-1.784-.467-1.46Z"/></g><defs><clipPath id="a"><path fill="#fff" d="M0 17.9 55.245.237 68.95 43.1 13.704 60.763z"/></clipPath></defs></svg>