<svg xmlns="http://www.w3.org/2000/svg" width="64" height="58" fill="none"><g clip-path="url(#a)"><path fill="#F7AD1A" d="M56.93 22.284c3.413 7.771-4.37 18.693-17.384 24.407-13.102 5.68-26.411 4.02-29.796-3.69a8.292 8.292 0 0 1-.419-1.287C7.238 34.1 14.89 24.046 27.224 18.63c12.334-5.416 24.914-4.245 29.13 2.51.136.309.387.713.577 1.145Z"/><path fill="#EE8034" d="M56.266 21.105c.388 1.89-.346 3.903-.705 6.268-.36 2.365-1.375 4.576-3.842 5.66-1.233.541-2.373 1.63-3.07 2.893-1.096 2.026-3.216 3.398-5.44 3.86-1.952.416-3.933 1.433-5.512 2.862-2.616 2.252-5.342 3.081-8.466 2.834-2.824-.23-5.527.147-7.829.937-3.377 1.189-5.823.644-8.194-1.405-1.444-1.278-3.007-1.99-3.938-3.273-2.093-7.614 5.557-17.668 17.892-23.085 12.308-5.478 24.887-4.307 29.104 2.449Z"/><path fill="#F7ADBB" d="M55.197 18.337c.948 2.158.022 4.404-.387 7.159-.36 2.365-1.375 4.576-3.842 5.66-1.233.541-2.373 1.63-3.07 2.892-1.158 2.054-3.216 3.399-5.44 3.86-1.952.416-3.933 1.433-5.512 2.862-2.616 2.253-5.342 3.082-8.466 2.835-2.824-.231-5.527.147-7.801.998-3.44 1.216-5.912.61-8.283-1.439-1.676-1.471-3.594-2.32-4.38-4.11-2.925-6.66 5.266-16.657 18.28-22.371 13.013-5.715 25.977-5.007 28.901 1.654Z"/><path fill="#EE8034" d="M53.622 14.247c3.413 7.77-4.399 18.631-17.412 24.345-13.013 5.715-26.322 4.055-29.707-3.654-.325-.74-.527-1.535-.667-2.356-1.198-7.42 6.299-16.817 18.017-21.963 11.78-5.173 23.772-4.332 28.513 1.605a9.057 9.057 0 0 1 1.256 2.023Z"/><path fill="#F7AD1A" d="M52.073 12.058c1.136 7.446-6.36 16.844-18.14 22.017-11.719 5.146-23.711 4.306-28.425-1.57C4.345 24.997 11.842 15.6 23.56 10.454 35.34 5.28 47.332 6.12 52.073 12.058Z"/><path fill="#FFC928" d="M27.264 14.198c1.974 2.15-.465 7.487-5.36 11.917-4.897 4.43-10.452 6.355-12.399 4.267-1.974-2.15.464-7.487 5.36-11.917 4.87-4.492 10.452-6.355 12.399-4.267Z"/><path fill="#EE8034" d="M36.371 17.85c-.247.108-.057.54.19.431.28-.197.118-.567-.19-.432ZM37.842 13.157c-.802.352-.233 1.648.569 1.296.802-.353.233-1.648-.569-1.296ZM31.296 24.05c-.802.353-.26 1.586.541 1.234.802-.352.322-1.612-.541-1.233ZM21.658 30.416l-.061.027c-.247.108-.058.54.19.432l.06-.027c.248-.108.058-.54-.189-.432ZM28.472 20.803c-.062.027 0 0 0 0-.328-.077-.5.367-.235.47.15.008.24.043.425-.038a.236.236 0 0 0-.19-.432ZM27.838 11.15c-.247.108-.057.54.19.431.246-.108.057-.54-.19-.431ZM25.794 30.954l-.185.081c-.802.353-.26 1.586.541 1.234l.185-.081c.864-.38.322-1.613-.541-1.234ZM9.305 30.765c-.39-.05-.706.236-.755.625-.07.178-.05.39.031.575.163.37.58.481.888.346.308-.136.447-.49.373-.826.138-.355-.236-.706-.537-.72ZM40.743 25.125c-.802.352-.233 1.648.569 1.296.836-.441.294-1.675-.57-1.296Z"/></g><defs><clipPath id="a"><path fill="#fff" d="M0 20.8 47.367 0l15.897 36.203-47.367 20.8z"/></clipPath></defs></svg>