<svg xmlns="http://www.w3.org/2000/svg" width="76" height="69" fill="none"><g clip-path="url(#a)"><path fill="#78CCCA" d="M68.244 26.456c4.208 9.26-4.952 22.468-20.458 29.515-15.614 7.007-31.587 5.223-35.762-3.964-.234-.514-.394-1.062-.521-1.536-2.625-9.093 6.388-21.258 21.086-27.938 14.698-6.68 29.79-5.47 34.947 2.56.167.368.474.849.708 1.363Z"/><path fill="#5EC4BA" d="M67.429 25.053c.494 2.259-.354 4.684-.749 7.523-.394 2.84-1.577 5.505-4.516 6.84-1.47.669-2.82 1.992-3.635 3.515-1.283 2.445-3.801 4.122-6.46 4.71-2.332.527-4.69 1.776-6.561 3.513-3.1 2.74-6.354 3.774-10.102 3.527-3.387-.234-6.62.26-9.366 1.242-4.029 1.476-6.968.862-9.84-1.557-1.751-1.51-3.635-2.338-4.77-3.862-2.626-9.092 6.387-21.257 21.085-27.937 14.665-6.754 29.757-5.544 34.914 2.486Z"/><path fill="#EB5660" d="M66.106 21.753c1.17 2.572.094 5.278-.354 8.585-.395 2.84-1.577 5.505-4.517 6.84-1.47.669-2.82 1.992-3.634 3.515-1.357 2.478-3.802 4.122-6.46 4.71-2.332.527-4.69 1.776-6.562 3.513-3.1 2.739-6.353 3.774-10.101 3.527-3.387-.234-6.62.26-9.333 1.316-4.102 1.51-7.075.821-9.948-1.598-2.03-1.737-4.342-2.726-5.31-4.857-3.608-7.937 6.053-20.042 21.56-27.09 15.58-7.08 31.052-6.398 34.66 1.54Z"/><path fill="#5EC4BA" d="M63.835 16.756c4.208 9.26-4.985 22.393-20.491 29.44-15.58 7.082-31.554 5.297-35.729-3.89-.4-.881-.654-1.83-.835-2.812-1.51-8.979 7.33-20.356 21.293-26.702 14.037-6.38 28.42-5.557 34.192 1.485a10.989 10.989 0 0 1 1.57 2.479Z"/><path fill="#78CCCA" d="M62.566 14.938c1.51 8.98-7.33 20.356-21.367 26.736-13.963 6.346-28.346 5.523-34.118-1.518-1.51-8.98 7.33-20.356 21.293-26.702 14.036-6.38 28.42-5.557 34.192 1.484Z"/><path fill="#9BD7D5" d="M32.569 17.222c2.398 2.545-.441 8.979-6.24 14.363-5.766 5.458-12.427 7.776-14.792 5.304-2.398-2.546.441-8.979 6.24-14.363 5.766-5.458 12.427-7.776 14.792-5.304Z"/><path fill="#5EC4BA" d="M43.539 21.458c-.294.134-.06.648.234.514.334-.24.133-.681-.234-.514ZM45.23 15.813c-.956.434-.288 1.904.667 1.47.956-.435.288-1.904-.668-1.47ZM37.553 28.967c-.956.434-.255 1.977.7 1.543 1.03-.468.328-2.01-.7-1.543ZM26.101 36.743l-.073.033c-.294.134-.06.648.233.514l.074-.033c.294-.133.06-.648-.234-.514ZM34.118 25.119l-.073.033c-.32-.12-.521.414-.2.534.18.007.287.047.507-.053a.283.283 0 0 0-.234-.514Z"/><path fill="#7AC143" d="M33.21 13.56c-.293.134-.06.649.234.515.294-.133.06-.648-.233-.514Z"/><path fill="#5EC4BA" d="m31.065 37.324-.22.1c-.956.434-.255 1.978.7 1.544l.221-.1c.996-.542.328-2.011-.701-1.544ZM11.303 37.35c-.467-.054-.842.294-.895.761-.08.214-.053.468.047.688.2.441.701.568 1.069.401.367-.167.527-.594.434-.995.16-.428-.294-.842-.655-.855ZM48.89 30.11c-.956.434-.288 1.904.668 1.47.955-.434.36-1.938-.668-1.47Z"/></g><defs><clipPath id="a"><path fill="#fff" d="M0 25.551 56.22 0l19.606 43.139-56.22 25.55z"/></clipPath></defs></svg>