<svg xmlns="http://www.w3.org/2000/svg" width="69" height="61" fill="none"><g clip-path="url(#a)"><path fill="#F281A3" d="M60.546 43.27c-2.62 9.298-17.219 13.31-32.617 8.971C12.479 47.81 2.12 36.767 4.719 27.543c.145-.516.364-1.012.561-1.434 3.652-8.21 17.512-11.554 32.107-7.442 14.596 4.112 24.672 14.198 23.48 23.181-.103.37-.176.906-.321 1.423Z"/><path fill="#EE5D7C" d="M60.815 41.754c-1.02 1.943-3.103 3.188-5.114 5.01-2.01 1.824-4.48 3.04-7.398 2.217-1.46-.411-3.231-.273-4.742.337-2.407.994-5.232.676-7.495-.519-1.991-1.039-4.441-1.57-6.838-1.448-3.888.099-6.85-1.133-9.384-3.6-2.284-2.236-4.902-3.85-7.466-4.811-3.785-1.385-5.517-3.625-6.103-7.135-.336-2.165-1.181-3.917-1.068-5.717 3.652-8.21 17.512-11.553 32.107-7.441C51.93 22.685 62.007 32.77 60.815 41.754Z"/><path fill="#AAD7D4" d="M61.876 38.548c-.728 2.583-3.145 3.893-5.478 6.023-2.01 1.823-4.48 3.04-7.398 2.217-1.46-.411-3.232-.273-4.742.337-2.48.973-5.232.676-7.495-.519-1.992-1.039-4.441-1.57-6.838-1.449-3.888.1-6.85-1.133-9.384-3.599-2.284-2.236-4.902-3.85-7.487-4.737-3.858-1.406-5.57-3.72-6.155-7.23-.399-2.502-1.453-4.63-.85-6.77 2.245-7.97 16.532-10.874 31.93-6.536 15.398 4.338 26.142 14.294 23.897 22.263Z"/><path fill="#EE5D7C" d="M63.29 33.53c-2.62 9.298-17.198 13.235-32.596 8.897-15.471-4.358-25.83-15.4-23.231-24.624.249-.885.644-1.73 1.113-2.554 4.382-7.446 17.638-10.322 31.503-6.416 13.866 3.906 23.743 13.3 23.594 21.938-.01.874-.113 1.8-.384 2.76Z"/><path fill="#F281A3" d="M63.673 30.771c-4.362 7.373-17.617 10.25-31.556 6.323-13.938-3.927-23.67-13.28-23.541-21.845 4.382-7.446 17.637-10.322 31.503-6.416 13.865 3.906 23.743 13.3 23.594 21.938Z"/><path fill="#F2AEBD" d="M40.605 14.795c.17 3.313-5.78 6.257-13.211 6.632s-13.635-1.93-13.825-5.169c-.17-3.313 5.78-6.257 13.211-6.632 7.452-.45 13.635 1.93 13.825 5.169Z"/><path fill="#EE3686" d="M45.886 24.566c-.292-.082-.437.434-.145.517.386.029.51-.414.145-.517ZM50.533 21.494c-.949-.267-1.365 1.209-.416 1.476.949.267 1.364-1.208.416-1.476ZM37.028 26.371c-.948-.267-1.364 1.209-.415 1.476 1 .362 1.437-1.188.415-1.476ZM24.093 25.037l-.073-.02c-.292-.083-.438.434-.146.516l.073.02c.292.083.438-.434.146-.516ZM36.91 21.48c-.073-.02 0 0 0 0-.23-.304-.698-.038-.542.245.126.115.178.21.397.271.365.103.51-.413.145-.516ZM43.292 12.525c-.292-.082-.437.435-.145.517.292.082.437-.434.145-.517ZM27.295 28.488l-.219-.062c-.948-.267-1.385 1.282-.436 1.55l.219.061c1.042.214 1.458-1.261.436-1.55ZM13.121 16.45c-.303-.324-.782-.3-1.105.008a.876.876 0 0 0-.385.528.764.764 0 0 0 .522.944c.365.103.74-.11.917-.459.375-.213.301-.79.051-1.02ZM44.456 34.119c-.949-.268-1.365 1.208-.416 1.475 1.022.288 1.437-1.188.416-1.475Z"/></g><defs><clipPath id="a"><path fill="#fff" d="M12.202.98 68.03 16.706 55.827 60.02 0 44.293z"/></clipPath></defs></svg>