<svg xmlns="http://www.w3.org/2000/svg" width="67" height="54" fill="none"><g clip-path="url(#a)"><path fill="#78CCCA" d="M63.319 35.296C62.266 45.412 47.684 52.173 30.743 50.41 13.73 48.559.853 38.94 1.897 28.905c.058-.562.197-1.116.327-1.59 2.334-9.171 16.262-15.107 32.32-13.437C50.602 15.55 63.01 24.226 63.397 33.762c-.042.401-.02.972-.078 1.534Z"/><path fill="#5EC4BA" d="M63.325 33.673c-.715 2.198-2.674 3.86-4.45 6.11-1.776 2.25-4.144 3.952-7.356 3.618-1.606-.167-3.439.292-4.913 1.193-2.343 1.46-5.364 1.633-7.955.796-2.278-.724-4.944-.84-7.437-.287-4.06.795-7.39.043-10.498-2.066-2.803-1.915-5.843-3.124-8.708-3.666-4.222-.764-6.447-2.78-7.702-6.32-.746-2.188-1.953-3.856-2.162-5.744C4.478 18.135 18.406 12.2 34.464 13.87c16.067 1.59 28.474 10.267 28.861 19.803Z"/><path fill="#EB5660" d="M63.854 30.157c-.293 2.81-2.59 4.6-4.648 7.227-1.776 2.25-4.144 3.951-7.356 3.617-1.606-.167-3.44.291-4.913 1.193-2.423 1.452-5.364 1.633-7.955.795-2.278-.723-4.944-.839-7.437-.286-4.06.795-7.39.042-10.498-2.067-2.803-1.915-5.843-3.123-8.717-3.585-4.302-.772-6.519-2.87-7.773-6.409-.874-2.525-2.368-4.548-2.126-6.876.903-8.671 15.36-14.228 32.3-12.465 17.022 1.77 30.025 10.185 29.123 18.856Z"/><path fill="#5EC4BA" d="M64.422 24.697c-1.053 10.117-15.626 16.798-32.568 15.035C14.833 37.96 1.955 28.342 3 18.306c.1-.963.36-1.91.702-2.849C6.94 6.948 20.32 1.604 35.575 3.191c15.336 1.596 27.328 9.58 28.746 18.574.149.908.21 1.889.1 2.932Z"/><path fill="#78CCCA" d="M64.246 22.488c-3.24 8.51-16.619 13.853-31.954 12.258C17.037 33.157 5.044 25.174 3.626 16.18 6.866 7.67 20.245 2.327 35.5 3.914c15.336 1.596 27.328 9.58 28.746 18.574Z"/><path fill="#9BD7D5" d="M37.214 9.287c.781 3.408-4.922 7.522-12.648 9.234-7.735 1.793-14.653.424-15.443-2.905-.781-3.409 4.922-7.523 12.648-9.235 7.734-1.792 14.653-.423 15.443 2.906Z"/><path fill="#5EC4BA" d="M44.534 18.489c-.32-.034-.38.528-.058.562.41-.039.46-.52.058-.562ZM48.848 14.474c-1.044-.109-1.211 1.497-.167 1.606 1.044.108 1.21-1.498.167-1.606ZM35.572 21.939c-1.043-.109-1.219 1.577-.175 1.686 1.124.117 1.3-1.57.175-1.686ZM21.761 22.855l-.08-.008c-.321-.033-.38.529-.059.562l.08.009c.322.033.38-.53.06-.563ZM34.557 16.883l-.08-.009c-.216-.266-.66.094-.444.36.152.097.224.186.465.21.402.042.46-.52.059-.561Z"/><path fill="#7AC143" d="M39.618 6.453c-.32-.034-.38.528-.058.562.321.033.38-.529.058-.562Z"/><path fill="#5EC4BA" d="m25.75 25.867-.242-.025c-1.043-.108-1.219 1.578-.175 1.687l.24.025c1.133.036 1.3-1.57.176-1.686ZM8.688 15.895c-.376-.283-.875-.172-1.157.204-.178.144-.283.377-.308.618a.809.809 0 0 0 .72.886c.4.042.755-.246.877-.64.355-.287.173-.874-.132-1.068ZM44.775 28.659c-1.044-.109-1.211 1.497-.168 1.606 1.044.108 1.292-1.49.168-1.606Z"/></g><defs><clipPath id="a"><path fill="#fff" d="m4.904 0 61.423 6.391-4.904 47.13L0 47.132z"/></clipPath></defs></svg>