<svg xmlns="http://www.w3.org/2000/svg" width="85" height="97" fill="none"><g fill="#E08CB8"><path d="M68.623 23.087c-.257-.384-.68-.604-1.096-.797-1.47-.7-2.994-1.342-4.615-1.582-1.612-.236-3.339-.057-4.72.808a45.71 45.71 0 0 1 5.37-7.886c-.156-.14-.321-.285-.477-.426-1.903 1.356-3.315 3.279-4.483 5.3-1.168 2.023-2.125 4.149-3.302 6.166 1.013-4.078.46-8.52-1.52-12.235-.47.154-.937.298-1.409.451 1.556 1.357 2.008 3.42 2.277 5.47.26 2.047.39 4.09-.094 6.096l-.475 2.422c.468-1.838 1.852-2.813 3.59-3.661 1.988-.966 3.359-1.161 5.422-1.123 1.436.029 4.46 1.154 5.402 2.233.389-.265.392-.862.13-1.236Z"/><path d="M54.084 26.865a2.84 2.84 0 0 0-.08.389l.08-.389Z"/></g><path fill="#46A5AA" d="M56.236 22.422 3.666 64.59s1.482 5.769 6.829 10.73c4.241 3.937 12.358 8.434 12.358 8.434s8.181 4.377 13.79 5.803c7.068 1.8 12.718-.086 12.718-.086l6.875-67.05Z"/><g fill="#E08CB8"><path d="M52.34 37.822c.633.61 1.343 1.219 2.108 1.646l.433-4.194c-1.372-1.024-2.797-1.989-4.042-3.165a15.188 15.188 0 0 1-2.613-3.283l-2.222 1.78a57.178 57.178 0 0 0 6.336 7.216ZM51.126 67.274c.142.045.297.085.458.117l.439-4.269c-3.339-2.825-7.132-5.123-10.389-8.06a34.315 34.315 0 0 1-9.156-13.601L27.9 45.125c3.592 4.072 6.57 8.64 10.127 12.736 3.569 4.114 7.887 7.827 13.099 9.413ZM50.719 75.78c-.18-.12-.363-.23-.541-.35-5.973-3.773-11.978-7.585-17.216-12.32-4.279-3.87-8.06-8.408-10.55-13.586l-5.314 4.262c6.944 12.33 18.167 22.218 31.295 27.527.537.215 1.118.41 1.711.522l.615-6.055ZM42.738 34.997a20.73 20.73 0 0 1-.645-1.26l-3.557 2.848a104.675 104.675 0 0 0 10.012 13.15c1.309 1.465 2.7 2.92 4.46 3.779l.527-5.14a50.994 50.994 0 0 1-10.797-13.377ZM17.333 76.32c1.93 2.645 3.867 5.317 6.062 7.74 1.973 1.02 8.493 4.293 13.195 5.491 1.158.298 2.275.485 3.33.605-.216-.46-.54-.88-.872-1.271-2.802-3.343-6.402-5.934-9.457-9.059-5.792-5.934-9.489-13.662-15.236-19.66-.748-.783-1.54-1.547-2.221-2.394L6.94 61.933c.617.945 1.282 1.861 1.935 2.76 2.819 3.882 5.642 7.756 8.457 11.626Z"/></g><path fill="#fff" d="M18.325 59.858c-1.194 1.012-2.438 2.095-2.98 3.56-.543 1.466-.115 3.427 1.332 4.049 1 .423 2.192.086 3.055-.563.863-.648 1.488-1.571 2.098-2.468a81.497 81.497 0 0 1 15.934-17.13c1.044-.837 4.382-4.524.944-4.359-2.003.095-5.03 3.84-6.515 5.103-4.618 3.942-9.245 7.88-13.868 11.809ZM41.256 40.303c-.125.21-.25.44-.228.684.031.472.575.756 1.037.742.938-.032 1.653-.816 2.257-1.54.805-.968 5.262-5.286 1.656-4.79-2.144.272-3.776 3.248-4.722 4.904Z" opacity=".34"/><path fill="#46A5AA" d="M66.558 30.788c.577-2.465-.316-5.222-2.241-6.88-1.925-1.656-4.779-2.136-7.137-1.205a13.903 13.903 0 0 1 4.433-4.11c.942-.55 2.03-.999 3.113-.83-.064-.433-.14-.863-.204-1.296-4.066.057-7.96 2.81-9.367 6.617.178-1.874-.904-3.736-2.452-4.801-1.553-1.078-3.505-1.443-5.39-1.362-.353.018-.724.049-1.006.26-.546.412-.478 1.224-.366 1.895 1.832-.963 4.221-.77 5.886.469 1.665 1.238 2.524 3.467 2.136 5.504l.66 1.312c1.034-1.696 3.168-2.56 5.132-2.3 1.973.266 3.719 1.56 4.762 3.246.347.566.634 1.198.642 1.856.003.666-.33 1.36-.937 1.639a8.333 8.333 0 0 0 2.336-.014Z"/></svg>