<svg xmlns="http://www.w3.org/2000/svg" width="92" height="81" fill="none"><g clip-path="url(#a)"><path fill="#F7AD1A" d="M79.77 58.454C75.874 70.437 56.46 74.85 36.392 68.326 16.262 61.676 3.154 46.689 7.02 34.8c.216-.666.527-1.3.808-1.84C13.03 22.455 31.44 18.87 50.46 25.055c19.02 6.184 31.803 19.909 29.803 31.561-.155.476-.276 1.172-.493 1.838Z"/><path fill="#EE8034" d="M80.198 56.49c-1.436 2.478-4.24 3.985-6.974 6.25-2.734 2.266-6.044 3.713-9.848 2.477-1.902-.619-4.241-.538-6.26.172-3.217 1.163-6.921.59-9.843-1.097-2.573-1.467-5.773-2.297-8.935-2.274-5.124-.088-8.963-1.862-12.182-5.222-2.9-3.046-6.27-5.298-9.6-6.696-4.917-2.02-7.09-5.04-7.693-9.652-.337-2.843-1.367-5.176-1.13-7.518 5.202-10.506 23.612-14.09 42.632-7.905C69.416 31.113 82.2 44.837 80.198 56.49Z"/><path fill="#F7ADBB" d="M81.75 52.368c-1.083 3.328-4.329 4.902-7.503 7.55-2.734 2.266-6.044 3.713-9.848 2.477-1.902-.619-4.242-.538-6.26.172-3.312 1.132-6.922.59-9.843-1.097-2.573-1.467-5.773-2.297-8.935-2.273-5.124-.09-8.963-1.863-12.182-5.223-2.9-3.046-6.27-5.298-9.631-6.601-5.012-2.05-7.154-5.165-7.757-9.778-.404-3.286-1.69-6.122-.793-8.88 3.339-10.27 22.291-13.258 42.357-6.734 20.066 6.524 33.733 20.116 30.394 30.387Z"/><path fill="#EE8034" d="M84.044 46.279c-3.896 11.983-23.28 16.3-43.347 9.777-20.066-6.524-33.174-21.511-29.31-33.399.372-1.141.933-2.22 1.59-3.269 6.001-9.405 23.593-12.413 41.662-6.539 18.164 5.906 30.624 18.684 30.012 29.947-.055 1.139-.236 2.342-.607 3.483Z"/><path fill="#F7AD1A" d="M84.49 42.323C78.391 51.697 60.8 54.705 42.635 48.8c-18.07-5.875-30.529-18.654-29.947-29.821 6.128-9.47 23.72-12.477 41.789-6.603C72.642 18.282 85.1 31.06 84.489 42.323Z"/><path fill="#FFC928" d="M54.883 20.184c.064 4.332-7.91 7.838-17.713 7.911-9.803.073-17.86-3.283-17.955-7.52-.064-4.332 7.91-7.838 17.714-7.91 9.833-.168 17.86 3.282 17.954 7.52Z"/><path fill="#EE8034" d="M61.368 33.228c-.38-.123-.597.542-.216.666.506.06.692-.511.216-.666ZM67.633 29.482c-1.236-.402-1.885 1.595-.649 1.997 1.236.402 1.886-1.595.65-1.997ZM49.618 35.086c-1.236-.402-1.855 1.5-.619 1.902 1.237.402 1.95-1.469.619-1.902ZM32.65 32.619l-.096-.03c-.38-.125-.597.541-.216.665l.095.03c.38.124.597-.541.216-.665ZM49.697 28.698c-.095-.031 0 0 0 0-.288-.41-.918-.088-.725.29.159.157.223.283.508.375a.35.35 0 0 0 .217-.665ZM58.53 17.374c-.38-.123-.596.542-.215.666.38.124.596-.542.216-.666ZM36.7 37.301l-.285-.093c-1.236-.402-1.855 1.5-.619 1.902l.286.093c1.331.433 1.95-1.47.618-1.902ZM18.616 20.8c-.383-.44-1.016-.434-1.456-.052-.252.129-.44.383-.532.668-.186.571.166 1.106.642 1.26.475.155.98-.102 1.229-.546.504-.257.435-1.015.117-1.33ZM59.025 45.61c-1.236-.401-1.886 1.596-.65 1.998 1.363.337 1.981-1.565.65-1.997Z"/></g><defs><clipPath id="a"><path fill="#fff" d="m18.15.565 73.036 23.746-18.15 55.824L0 56.389z"/></clipPath></defs></svg>