<svg xmlns="http://www.w3.org/2000/svg" width="100" height="100" fill="none"><circle cx="50" cy="50" r="50" fill="#fff"/><g fill="#8A8CDC"><path d="M73.91 49.863v-7.308H61.944c.273-.274.548-.548.73-.913h1.645a4.094 4.094 0 0 0 4.11-4.111 4.094 4.094 0 0 0-4.11-4.111H51.073v4.567c0 1.828.73 3.38 1.918 4.568h-10.14v7.308h1.827v-1.827h1.279l1.827 3.654h1.462v22.838a1.832 1.832 0 0 1-1.827 1.827 1.832 1.832 0 0 1-1.827-1.827h-1.827a3.665 3.665 0 0 0 3.654 3.654 3.665 3.665 0 0 0 3.654-3.654v-12.79h14.616v12.79a3.665 3.665 0 0 0 3.654 3.654 3.665 3.665 0 0 0 3.654-3.654H71.17a1.832 1.832 0 0 1-1.827 1.827 1.832 1.832 0 0 1-1.827-1.827V51.69h1.462l1.827-3.654h1.278v1.827h1.828ZM64.32 35.247a2.262 2.262 0 0 1 2.283 2.284 2.262 2.262 0 0 1-2.283 2.284h-.731a5.89 5.89 0 0 0 .274-1.828v-2.74h.457Zm-11.42 2.74v-2.74h9.136v2.74c0 2.558-2.01 4.568-4.568 4.568s-4.567-2.01-4.567-4.568Zm-1.826 21.925v-1.827h14.616v1.827H51.073Zm14.616-3.654H51.073V51.69h14.616v4.568Zm2.192-6.395h-19l-.914-1.827h20.828l-.914 1.827ZM44.678 46.21v-1.827h27.406v1.827H44.678ZM39.197 75.442c0 .548-.366.913-.914.913s-.913-.365-.913-.913V60.825h.913a1.832 1.832 0 0 0 1.827-1.827v-1.827a1.832 1.832 0 0 0-1.827-1.827H23.667l-.914-19.184c0-1.552-1.187-2.74-2.74-2.74-1.553 0-2.74 1.188-2.74 2.74v.914h1.826v-.913c0-.549.366-.914.914-.914s.913.365.913.913l.914 20.098v4.567h1.827v14.617c0 .548-.365.913-.914.913-.548 0-.913-.365-.913-.913v-.914h-1.827v.913c0 1.553 1.188 2.741 2.74 2.741 1.553 0 2.741-1.188 2.741-2.74V60.825h10.049v14.617c0 1.552 1.187 2.74 2.74 2.74 1.553 0 2.74-1.188 2.74-2.74v-.914h-1.826v.913Zm-15.53-18.27h14.616v1.826H23.667v-1.827ZM53.813 26.66a3.19 3.19 0 0 0-.913 2.192c0 .823.365 1.645.913 2.193l1.188 1.187 1.279-1.279-1.188-1.187c-.274-.274-.365-.548-.365-.914 0-.365.091-.64.365-.913l.548-.548a3.19 3.19 0 0 0 .914-2.193 3.19 3.19 0 0 0-.914-2.192l-1.187-1.188-1.279 1.28 1.188 1.187c.274.274.365.548.365.913 0 .366-.091.64-.365.914l-.549.548ZM59.294 26.66a3.19 3.19 0 0 0-.913 2.192c0 .823.365 1.645.913 2.193l1.188 1.187 1.279-1.279-1.188-1.187c-.274-.274-.365-.548-.365-.914 0-.365.091-.64.365-.913l.548-.548a3.19 3.19 0 0 0 .914-2.193 3.19 3.19 0 0 0-.914-2.192l-1.187-1.188-1.28 1.28 1.188 1.187c.275.274.366.548.366.913 0 .366-.091.64-.365.914l-.549.548Z"/></g></svg>