<svg xmlns="http://www.w3.org/2000/svg" width="100" height="100" fill="none"><circle cx="50" cy="50" r="50" fill="#fff"/><g fill="#9FCE9E"><path d="M70.49 38.28c.664-5.103-1.562-9.756-5.948-12.444a27.947 27.947 0 0 0-23.341-2.714c-7.395 2.447-13.271 7.712-16.548 14.822-5.819 12.637-1.317 27.749 10.472 35.15a28.318 28.318 0 0 0 2.602 1.45c4.623 2.265 9.932 1.63 13.854-1.657 4.121-3.456 5.746-8.856 4.24-14.095v-.002c-.657-2.274-.542-4.248.341-5.867.88-1.613 2.477-2.775 4.747-3.454 5.215-1.562 8.886-5.85 9.582-11.19ZM54.127 51.811c-1.17 2.144-1.355 4.78-.534 7.623 1.249 4.343-.093 8.816-3.501 11.673-3.259 2.731-7.498 3.238-11.345 1.352a25.645 25.645 0 0 1-2.387-1.33c-10.805-6.784-14.932-20.634-9.599-32.215 3.004-6.521 8.392-11.348 15.17-13.592a25.62 25.62 0 0 1 21.393 2.486c3.59 2.2 5.41 6.003 4.867 10.17-.574 4.421-3.62 7.973-7.946 9.268-2.835.847-4.95 2.426-6.118 4.565Z"/><path d="M61.39 28.609a4.607 4.607 0 0 0-6.243 1.834 4.606 4.606 0 0 0 1.835 6.243 4.605 4.605 0 0 0 6.242-1.834 4.606 4.606 0 0 0-1.834-6.243Zm-3.297 6.04a2.284 2.284 0 0 1-.91-3.095 2.285 2.285 0 0 1 3.096-.91 2.284 2.284 0 0 1 .909 3.096 2.283 2.283 0 0 1-3.095.91ZM42.946 62.403a4.606 4.606 0 0 0-6.243 1.834 4.607 4.607 0 0 0 1.835 6.243 4.606 4.606 0 0 0 6.242-1.835 4.605 4.605 0 0 0-1.834-6.242Zm-3.297 6.041a2.285 2.285 0 0 1-.91-3.096 2.283 2.283 0 1 1 .91 3.096ZM37.105 42.526a4.606 4.606 0 0 0-1.833-6.243 4.607 4.607 0 0 0-6.244 1.835 4.606 4.606 0 0 0 1.835 6.242 4.605 4.605 0 0 0 6.242-1.834Zm-5.13-.202a2.284 2.284 0 0 1-.91-3.095 2.285 2.285 0 0 1 3.095-.91 2.284 2.284 0 0 1 .91 3.096 2.283 2.283 0 0 1-3.096.91ZM30.198 50.557a4.608 4.608 0 0 0-3.117 5.71 4.568 4.568 0 0 0 2.21 2.742 4.57 4.57 0 0 0 3.5.376 4.57 4.57 0 0 0 2.742-2.21 4.568 4.568 0 0 0 .376-3.501 4.606 4.606 0 0 0-5.711-3.117Zm1.94 6.603c-1.171.344-2.488-.375-2.832-1.546a2.285 2.285 0 0 1 1.545-2.832 2.287 2.287 0 0 1 2.833 1.546 2.267 2.267 0 0 1-.187 1.736 2.264 2.264 0 0 1-1.36 1.096ZM43.239 26.661a4.608 4.608 0 0 0-3.117 5.712 4.588 4.588 0 0 0 2.212 2.74 4.585 4.585 0 0 0 3.5.377 4.568 4.568 0 0 0 2.74-2.21 4.566 4.566 0 0 0 .376-3.502c-.691-2.359-3.353-3.811-5.711-3.117Zm1.94 6.603a2.283 2.283 0 0 1-2.832-1.545 2.285 2.285 0 0 1 1.546-2.832 2.267 2.267 0 0 1 1.737.186c.534.292.923.774 1.095 1.36.172.585.106 1.2-.186 1.735a2.267 2.267 0 0 1-1.36 1.096ZM75.593 54.246l1.636-5.659c1.076-.398 2.026-1.152 2.617-2.235 1.103-2.02.728-8.198.641-9.416-.054-.788-1.022-1.314-1.713-.935-1.072.587-6.47 3.613-7.572 5.633-.591 1.084-.711 2.29-.464 3.411l-3.874 4.437c-.033.037-.042.087-.069.127-.035.051-.083.09-.11.148L55.359 74.1a3.297 3.297 0 0 0 1.418 4.242 3.3 3.3 0 0 0 4.341-1.11l14.341-22.688c.034-.053.04-.116.065-.172.02-.045.056-.08.07-.127Zm-16.43 21.738a.967.967 0 0 1-1.697-.915l10.801-23.213 4.57 2.494-13.674 21.634ZM69.56 49.92l2.314-2.65c.364.406.785.77 1.29 1.045.505.276 1.04.433 1.577.52l-.977 3.38-4.204-2.295Zm4.715-3.64a2.607 2.607 0 0 1-1.038-3.535c.456-.834 2.853-2.476 5.03-3.78.082 2.537-.002 5.44-.458 6.276a2.608 2.608 0 0 1-3.534 1.038Z"/></g></svg>