<svg xmlns="http://www.w3.org/2000/svg" width="100" height="100" fill="none"><circle cx="50" cy="50" r="50" fill="#fff"/><path fill="#57B6BB" d="M77.252 60.657c-.774-4.064-4.355-6.968-8.517-6.968h-6.774c-4.162 0-7.742 3-8.517 6.968a2.497 2.497 0 0 0-1.839 2.42c0 .677.29 1.258.678 1.742-.387.484-.678 1.064-.678 1.742 0 1.161.775 2.129 1.84 2.42.773 4.064 4.354 6.968 8.516 6.968h6.774c4.162 0 7.743-3 8.517-6.969a2.497 2.497 0 0 0 1.839-2.42c0-.677-.29-1.257-.678-1.741.388-.484.678-1.065.678-1.742 0-1.065-.774-2.13-1.839-2.42Zm-15.291-5.226h6.774c3.194 0 5.904 2.13 6.775 5.13h-.29l-.194-.194a2.267 2.267 0 0 0-1.645-.677h-.484c-.58 0-1.161.193-1.645.677-.097.097-.29.194-.387.194h-.484c-.194 0-.29-.097-.387-.194a2.267 2.267 0 0 0-1.646-.677h-.484c-.58 0-1.16.193-1.645.677-.097.097-.29.194-.387.194h-.484c-.193 0-.29-.097-.387-.194a2.266 2.266 0 0 0-1.645-.677h-.484c-.58 0-1.162.193-1.645.677-.097.097-.29.194-.387.194h-.484c-.194 0-.29-.097-.388-.194a2.267 2.267 0 0 0-1.645-.677H57.8c-.58 0-1.161.193-1.645.677l-.58.194h-.29c.773-3 3.483-5.13 6.677-5.13Zm-7.742 6.872h2.032l.677-.678c.097-.097.29-.193.388-.193h.483c.194 0 .29.096.388.193a2.267 2.267 0 0 0 1.645.678h.58c.581 0 1.162-.194 1.646-.678.096-.097.29-.193.387-.193h.484c.193 0 .29.096.387.193a2.267 2.267 0 0 0 1.645.678h.484c.58 0 1.161-.194 1.645-.678.097-.097.29-.193.387-.193h.678c.193 0 .29.096.387.193a2.267 2.267 0 0 0 1.645.678h.484c.58 0 1.161-.194 1.645-.678.097-.097.29-.193.387-.193h.484c.194 0 .29.096.387.193l.678.678h2.032c.484 0 .871.387.871.87a.867.867 0 0 1-.87.872H54.218a.867.867 0 0 1-.872-.871c0-.484.388-.871.871-.871Zm14.516 12h-6.774c-3.194 0-5.904-2.129-6.775-5.13h20.227c-.774 3.001-3.484 5.13-6.678 5.13Zm7.743-6.871h-22.26a.867.867 0 0 1-.87-.871c0-.484.387-.871.87-.871h22.357c.483 0 .87.387.87.87-.096.485-.483.872-.967.872Z"/><path fill="#57B6BB" d="M52.477 69.404h-3.484v-24.96h11.323v8.41h.87c.388 0 .678 0 .969.098V44.54h1.838c.484 0 .968-.484.968-.968v-8.614c0-.483-.484-.967-.968-.967H53.251a5.707 5.707 0 0 0 1.452-3.775 5.617 5.617 0 0 0-5.614-5.613c-1.838 0-3.484.871-4.451 2.226a6.151 6.151 0 0 0-5.42-3.194 6.072 6.072 0 0 0-6.097 6.097c0 1.646.677 3.097 1.742 4.259H24.604c-.484 0-.967.484-.967.967v8.42c0 .484.483.968.967.968h1.84v25.928c0 .484.483.968.967.968h25.743c-.29-.58-.484-1.161-.677-1.839Zm10.646-33.477v6.581h-14.13v-6.58h14.13Zm-17.808-5.613c0-2.13 1.645-3.774 3.775-3.774 2.129 0 3.774 1.645 3.774 3.774 0 2.13-1.645 3.774-3.774 3.774h-3.775v-3.774Zm-6.194-4.742c2.323 0 4.258 1.839 4.258 4.258v4.258h-4.258c-2.323 0-4.258-1.838-4.258-4.258.097-2.323 1.935-4.258 4.258-4.258Zm.484 43.832H28.38v-24.96h11.323v24.96h-.097Zm0-26.896h-14.13v-6.58h14.13v6.58Zm7.549 26.896H41.54v-24.96h5.613v24.96Zm0-26.896H41.54v-6.58h5.613v6.58Z"/></svg>