<svg xmlns="http://www.w3.org/2000/svg" width="100" height="100" fill="none"><circle cx="50" cy="50" r="50" fill="#fff"/><g fill="#E67285"><path d="M58.763 26.482c-.612-3.165-3.47-5.573-6.735-5.573h-5.374c-3.265 0-6.122 2.408-6.735 5.573-.884.275-1.496 1.032-1.496 1.995 0 .55.204 1.032.544 1.377-.34.344-.544.825-.544 1.376 0 .963.612 1.72 1.428 1.995.613 3.233 3.47 5.573 6.735 5.573h5.374c3.266 0 6.123-2.408 6.735-5.573a2.085 2.085 0 0 0 1.428-1.995c0-.55-.204-1.032-.544-1.377.34-.344.544-.825.544-1.376.069-.963-.544-1.72-1.36-1.995Zm-12.109-4.197h5.374a5.483 5.483 0 0 1 5.306 4.128h-.272l-.136-.137c-.34-.344-.748-.55-1.292-.55h-.408c-.477 0-.953.206-1.293.55a.516.516 0 0 1-.34.137h-.408a.516.516 0 0 1-.34-.137c-.34-.344-.749-.55-1.293-.55h-.408c-.476 0-.952.206-1.293.55a.516.516 0 0 1-.34.137h-.408a.516.516 0 0 1-.34-.137c-.34-.344-.748-.55-1.292-.55h-.409c-.476 0-.952.206-1.292.55a.516.516 0 0 1-.34.137h-.408a.516.516 0 0 1-.34-.137c-.34-.344-.749-.55-1.293-.55h-.408c-.477 0-.953.206-1.293.55l-.136.137h-.272c.68-2.408 2.857-4.128 5.374-4.128Zm-6.19 5.504h1.632l.545-.55c.136-.069.272-.138.34-.138h.408c.136 0 .272.07.34.138.34.344.816.55 1.293.55h.408c.476 0 .952-.206 1.292-.55.136-.069.272-.138.34-.138h.409c.136 0 .272.07.34.138.34.344.816.55 1.292.55h.408c.476 0 .953-.206 1.293-.55.136-.069.272-.138.34-.138h.408c.136 0 .272.07.34.138.34.344.817.55 1.293.55h.408c.476 0 .952-.206 1.292-.55.137-.069.273-.138.34-.138h.409c.136 0 .272.07.34.138l.544.55h1.633c.408 0 .68.276.68.688 0 .413-.272.688-.68.688H40.464c-.408 0-.68-.275-.68-.688 0-.412.34-.688.68-.688Zm11.564 9.633h-5.374a5.483 5.483 0 0 1-5.306-4.128h16.054c-.68 2.408-2.857 4.128-5.374 4.128Zm6.123-5.504H40.464c-.408 0-.68-.276-.68-.688 0-.413.272-.689.68-.689H58.15c.408 0 .68.276.68.689 0 .412-.272.688-.68.688ZM34.886 64.048c-.613-3.234-3.47-5.573-6.735-5.573h-5.374c-3.266 0-6.123 2.408-6.735 5.573-.884.275-1.497 1.032-1.497 1.995 0 .55.204 1.032.545 1.376-.34.344-.545.826-.545 1.376 0 .964.613 1.72 1.429 1.996.612 3.233 3.47 5.573 6.735 5.573h5.374c3.265 0 6.122-2.408 6.735-5.573a2.085 2.085 0 0 0 1.428-1.996c0-.55-.204-1.032-.544-1.376.34-.344.544-.825.544-1.376.068-.963-.544-1.72-1.36-1.995Zm-12.11-4.197h5.375a5.483 5.483 0 0 1 5.306 4.128h-.272l-.136-.137a1.848 1.848 0 0 0-1.293-.55h-.408c-.476 0-.952.206-1.292.55a.517.517 0 0 1-.34.137h-.409a.517.517 0 0 1-.34-.137 1.848 1.848 0 0 0-1.292-.55h-.409c-.476 0-.952.206-1.292.55a.517.517 0 0 1-.34.137h-.408a.517.517 0 0 1-.34-.137 1.848 1.848 0 0 0-1.293-.55h-.408c-.476 0-.952.206-1.293.55a.516.516 0 0 1-.34.137h-.408a.517.517 0 0 1-.34-.137 1.848 1.848 0 0 0-1.293-.55h-.408c-.476 0-.952.206-1.292.55l-.136.137h-.272c.68-2.408 2.857-4.128 5.374-4.128Zm-6.19 5.504h1.633l.544-.55a.517.517 0 0 1 .34-.138h.408c.137 0 .273.07.34.138.34.344.817.55 1.293.55h.408c.476 0 .953-.206 1.293-.55a.517.517 0 0 1 .34-.138h.408c.136 0 .272.07.34.138.34.344.817.55 1.293.55h.408c.476 0 .952-.206 1.292-.55a.516.516 0 0 1 .34-.138h.409c.136 0 .272.07.34.138.34.344.816.55 1.292.55h.409c.476 0 .952-.206 1.292-.55a.517.517 0 0 1 .34-.138h.408c.136 0 .272.07.34.138l.545.55h1.632c.408 0 .68.275.68.688 0 .413-.272.688-.68.688H16.586c-.408 0-.68-.275-.68-.688 0-.413.272-.688.68-.688Zm11.497 9.633h-5.374a5.482 5.482 0 0 1-5.306-4.129h16.054c-.68 2.409-2.857 4.129-5.374 4.129Zm6.19-5.505H16.586c-.408 0-.68-.275-.68-.688 0-.412.272-.688.68-.688h17.687c.408 0 .68.276.68.688a.686.686 0 0 1-.68.688ZM58.967 64.048c-.612-3.234-3.47-5.573-6.735-5.573h-5.374c-3.265 0-6.122 2.408-6.735 5.573a2.085 2.085 0 0 0-1.428 1.995c0 .55.204 1.032.544 1.376-.34.344-.544.826-.544 1.376 0 .964.612 1.72 1.428 1.996.613 3.233 3.47 5.573 6.735 5.573h5.374c3.266 0 6.123-2.408 6.735-5.573a2.085 2.085 0 0 0 1.428-1.996c0-.55-.204-1.032-.544-1.376.34-.344.544-.825.544-1.376 0-.963-.612-1.72-1.428-1.995Zm-12.109-4.197h5.374a5.483 5.483 0 0 1 5.306 4.128h-.272l-.136-.137a1.848 1.848 0 0 0-1.292-.55h-.409c-.476 0-.952.206-1.292.55a.517.517 0 0 1-.34.137h-.408a.516.516 0 0 1-.34-.137 1.849 1.849 0 0 0-1.293-.55h-.408c-.476 0-.953.206-1.293.55a.517.517 0 0 1-.34.137h-.408a.517.517 0 0 1-.34-.137 1.848 1.848 0 0 0-1.293-.55h-.408c-.476 0-.952.206-1.292.55a.516.516 0 0 1-.34.137h-.409a.517.517 0 0 1-.34-.137 1.848 1.848 0 0 0-1.292-.55h-.408c-.477 0-.953.206-1.293.55l-.136.137h-.272c.68-2.408 2.857-4.128 5.374-4.128Zm-6.19 5.504H42.3l.544-.55a.517.517 0 0 1 .34-.138h.409c.136 0 .272.07.34.138.34.344.816.55 1.292.55h.409c.476 0 .952-.206 1.292-.55a.517.517 0 0 1 .34-.138h.408c.136 0 .273.07.34.138.34.344.817.55 1.293.55h.408c.476 0 .953-.206 1.293-.55a.517.517 0 0 1 .34-.138h.408c.136 0 .272.07.34.138.34.344.817.55 1.293.55h.408c.476 0 .952-.206 1.292-.55a.517.517 0 0 1 .34-.138h.409c.136 0 .272.07.34.138l.544.55h1.633c.408 0 .68.275.68.688 0 .413-.272.688-.68.688H40.668c-.408 0-.68-.275-.68-.688 0-.413.34-.688.68-.688Zm11.564 9.633h-5.374a5.482 5.482 0 0 1-5.306-4.129h16.054c-.68 2.409-2.857 4.129-5.374 4.129Zm6.123-5.505H40.668c-.408 0-.68-.275-.68-.688 0-.412.272-.688.68-.688h17.687c.408 0 .68.276.68.688a.686.686 0 0 1-.68.688ZM83.049 64.048c-.612-3.234-3.47-5.573-6.735-5.573H70.94c-3.265 0-6.122 2.408-6.735 5.573a2.085 2.085 0 0 0-1.428 1.995c0 .55.204 1.032.544 1.376-.34.344-.544.826-.544 1.376 0 .964.612 1.72 1.428 1.996.613 3.233 3.47 5.573 6.735 5.573h5.374c3.266 0 6.123-2.408 6.735-5.573a2.085 2.085 0 0 0 1.428-1.996c0-.55-.204-1.032-.544-1.376.34-.344.544-.825.544-1.376.069-.963-.544-1.72-1.428-1.995ZM70.94 59.851h5.374a5.483 5.483 0 0 1 5.306 4.128h-.272l-.136-.137a1.848 1.848 0 0 0-1.292-.55h-.409c-.476 0-.952.206-1.292.55a.517.517 0 0 1-.34.137h-.408a.517.517 0 0 1-.34-.137 1.848 1.848 0 0 0-1.293-.55h-.408c-.476 0-.953.206-1.293.55a.517.517 0 0 1-.34.137h-.408a.516.516 0 0 1-.34-.137 1.849 1.849 0 0 0-1.293-.55h-.408c-.476 0-.952.206-1.292.55a.517.517 0 0 1-.34.137h-.408a.517.517 0 0 1-.34-.137 1.848 1.848 0 0 0-1.293-.55h-.408c-.477 0-.953.206-1.293.55l-.136.137h-.272c.68-2.408 2.857-4.128 5.374-4.128Zm-6.122 5.504h1.632l.544-.55a.517.517 0 0 1 .34-.138h.409c.136 0 .272.07.34.138.34.344.816.55 1.293.55h.408c.476 0 .952-.206 1.292-.55a.517.517 0 0 1 .34-.138h.409c.135 0 .272.07.34.138.34.344.816.55 1.292.55h.408c.477 0 .953-.206 1.293-.55a.517.517 0 0 1 .34-.138h.408c.136 0 .272.07.34.138.34.344.817.55 1.293.55h.408c.476 0 .952-.206 1.292-.55a.517.517 0 0 1 .34-.138h.409c.136 0 .272.07.34.138l.544.55h1.633c.408 0 .68.275.68.688 0 .413-.272.688-.68.688H64.818c-.409 0-.68-.275-.68-.688 0-.413.271-.688.68-.688Zm11.496 9.633H70.94a5.482 5.482 0 0 1-5.306-4.129h16.054c-.68 2.409-2.857 4.129-5.374 4.129Zm6.19-5.505H64.819c-.409 0-.68-.275-.68-.688 0-.412.271-.688.68-.688h17.687c.408 0 .68.276.68.688 0 .344-.34.688-.68.688ZM46.926 45.265c-.612-3.233-3.469-5.573-6.734-5.573h-5.374c-3.266 0-6.123 2.408-6.735 5.573a2.084 2.084 0 0 0-1.429 1.996c0 .55.204 1.032.544 1.376-.34.344-.544.825-.544 1.376 0 .963.613 1.72 1.429 1.995.612 3.234 3.47 5.573 6.735 5.573h5.374c3.265 0 6.122-2.408 6.734-5.573a2.085 2.085 0 0 0 1.429-1.995c0-.55-.204-1.032-.544-1.376.34-.344.544-.826.544-1.376 0-.964-.612-1.79-1.429-1.996ZM34.818 41h5.374a5.483 5.483 0 0 1 5.306 4.128h-.272l-.136-.138a1.848 1.848 0 0 0-1.293-.55h-.408c-.476 0-.952.206-1.293.55a.516.516 0 0 1-.34.138h-.408a.516.516 0 0 1-.34-.138 1.848 1.848 0 0 0-1.293-.55h-.408c-.476 0-.952.206-1.292.55a.516.516 0 0 1-.34.138h-.408a.516.516 0 0 1-.34-.138 1.848 1.848 0 0 0-1.293-.55h-.408c-.477 0-.953.206-1.293.55a.516.516 0 0 1-.34.138h-.408a.516.516 0 0 1-.34-.138 1.848 1.848 0 0 0-1.293-.55h-.408c-.476 0-.952.206-1.292.55l-.137.138h-.272C30.123 42.72 32.301 41 34.818 41Zm-6.19 5.504h1.632l.544-.55a.516.516 0 0 1 .34-.138h.408c.136 0 .272.069.34.137.34.344.817.55 1.293.55h.408c.476 0 .952-.206 1.293-.55a.517.517 0 0 1 .34-.137h.408c.136 0 .272.069.34.137.34.344.816.55 1.293.55h.408c.476 0 .952-.206 1.292-.55a.517.517 0 0 1 .34-.137h.408c.137 0 .273.069.34.137.34.344.817.55 1.293.55h.408c.477 0 .953-.206 1.293-.55a.516.516 0 0 1 .34-.137h.408c.136 0 .272.069.34.137l.544.55h1.633c.408 0 .68.276.68.689 0 .413-.272.688-.68.688H28.627c-.408 0-.68-.275-.68-.688 0-.413.34-.688.68-.688Zm11.564 9.632h-5.374a5.483 5.483 0 0 1-5.307-4.128h16.055c-.748 2.408-2.857 4.128-5.374 4.128Zm6.122-5.504H28.627c-.408 0-.68-.275-.68-.688 0-.413.272-.688.68-.688h17.687c.408 0 .68.275.68.688 0 .413-.272.688-.68.688ZM71.008 45.265c-.612-3.233-3.47-5.573-6.735-5.573H58.9c-3.265 0-6.122 2.408-6.735 5.573a2.085 2.085 0 0 0-1.428 1.996c0 .55.204 1.032.544 1.376-.34.344-.544.825-.544 1.376 0 .963.612 1.72 1.428 1.995.613 3.234 3.47 5.573 6.735 5.573h5.374c3.266 0 6.123-2.408 6.735-5.573a2.085 2.085 0 0 0 1.428-1.995c0-.55-.204-1.032-.544-1.376.34-.344.544-.826.544-1.376 0-.964-.612-1.79-1.428-1.996ZM58.899 41h5.374a5.483 5.483 0 0 1 5.306 4.128h-.272l-.136-.138a1.848 1.848 0 0 0-1.292-.55h-.409c-.476 0-.952.206-1.292.55a.516.516 0 0 1-.34.138h-.408a.516.516 0 0 1-.34-.138 1.848 1.848 0 0 0-1.293-.55h-.408c-.476 0-.953.206-1.293.55a.516.516 0 0 1-.34.138h-.408a.516.516 0 0 1-.34-.138 1.848 1.848 0 0 0-1.293-.55h-.408c-.476 0-.952.206-1.292.55a.516.516 0 0 1-.34.138h-.408a.516.516 0 0 1-.34-.138 1.848 1.848 0 0 0-1.293-.55h-.408c-.477 0-.953.206-1.293.55l-.136.138h-.272C54.205 42.72 56.382 41 58.899 41Zm-6.19 5.504h1.632l.544-.55a.517.517 0 0 1 .34-.138h.409c.136 0 .272.069.34.137.34.344.816.55 1.293.55h.408c.476 0 .952-.206 1.292-.55a.517.517 0 0 1 .34-.137h.408c.136 0 .272.069.34.137.34.344.817.55 1.293.55h.408c.476 0 .953-.206 1.293-.55a.516.516 0 0 1 .34-.137h.408c.136 0 .272.069.34.137.34.344.817.55 1.293.55h.408c.476 0 .952-.206 1.292-.55a.517.517 0 0 1 .34-.137h.409c.136 0 .272.069.34.137l.544.55h1.633c.408 0 .68.276.68.689 0 .413-.272.688-.68.688H52.709c-.409 0-.68-.275-.68-.688 0-.413.34-.688.68-.688Zm11.564 9.632H58.9a5.483 5.483 0 0 1-5.306-4.128h16.054c-.68 2.408-2.857 4.128-5.374 4.128Zm6.123-5.504H52.709c-.409 0-.68-.275-.68-.688 0-.413.271-.688.68-.688h17.687c.408 0 .68.275.68.688 0 .413-.272.688-.68.688Z"/></g></svg>