<svg xmlns="http://www.w3.org/2000/svg" width="100" height="100" fill="none"><circle cx="50" cy="50" r="50" fill="#fff"/><g fill="#F4976E"><path d="M77.562 22.438v55.124H22.438V22.438h55.124Zm0-1.529H22.438c-.84 0-1.529.688-1.529 1.53v55.123c0 .84.688 1.529 1.53 1.529h55.123c.84 0 1.529-.688 1.529-1.53V22.439c0-.84-.688-1.529-1.53-1.529Z"/><path d="M50.803 37.806c0-.612-.23-1.147-.612-1.53.383-.382.612-.917.612-1.529 0-1.07-.688-1.911-1.606-2.217a7.787 7.787 0 0 0-7.645-6.193h-6.04c-3.746 0-6.881 2.676-7.57 6.193a2.319 2.319 0 0 0-1.605 2.217c0 .612.23 1.147.612 1.53a2.135 2.135 0 0 0-.612 1.529c0 1.07.689 1.91 1.606 2.217.688 3.593 3.9 6.193 7.569 6.193h6.04c3.67 0 6.88-2.676 7.569-6.193.994-.306 1.682-1.224 1.682-2.217Zm-15.291-9.94h6.04c2.829 0 5.275 1.912 5.963 4.588h-.306l-.152-.153a2.09 2.09 0 0 0-1.453-.612h-.459c-.535 0-1.07.23-1.452.612a.584.584 0 0 1-.383.153h-.458a.584.584 0 0 1-.383-.153 2.09 2.09 0 0 0-1.452-.612h-.46c-.534 0-1.07.23-1.452.612a.584.584 0 0 1-.382.153h-.459a.584.584 0 0 1-.382-.153 2.089 2.089 0 0 0-1.453-.612h-.458c-.535 0-1.07.23-1.453.612a.584.584 0 0 1-.382.153h-.459a.584.584 0 0 1-.382-.153 2.09 2.09 0 0 0-1.453-.612h-.459c-.535 0-1.07.23-1.452.612l-.153.153h-.306c.765-2.676 3.211-4.588 6.04-4.588Zm-6.881 6.117h1.835l.612-.612a.584.584 0 0 1 .382-.153h.459c.152 0 .305.077.382.153.382.383.917.612 1.453.612h.458c.535 0 1.07-.23 1.453-.612a.584.584 0 0 1 .382-.153h.459c.153 0 .306.077.382.153.382.383.918.612 1.453.612h.459c.535 0 1.07-.23 1.452-.612a.584.584 0 0 1 .382-.153h.46c.152 0 .305.077.381.153.383.383.918.612 1.453.612h.459c.535 0 1.07-.23 1.452-.612a.584.584 0 0 1 .383-.153h.458c.153 0 .306.077.383.153l.611.612h1.835c.459 0 .765.306.765.764 0 .46-.306.765-.765.765H28.631c-.459 0-.765-.306-.765-.765 0-.458.306-.764.765-.764Zm0 3.058h19.878c.459 0 .765.306.765.765 0 .458-.306.764-.765.764H28.631c-.459 0-.765-.306-.765-.764 0-.46.306-.765.765-.765Zm12.92 7.646h-6.04c-2.828 0-5.274-1.912-5.963-4.588h18.044c-.765 2.676-3.211 4.588-6.04 4.588ZM72.057 60.054c-.688-3.594-3.9-6.193-7.569-6.193h-6.04c-3.67 0-6.88 2.676-7.569 6.193a2.32 2.32 0 0 0-1.605 2.217c0 .611.229 1.147.611 1.529a2.135 2.135 0 0 0-.611 1.529c0 1.07.688 1.911 1.605 2.217.688 3.593 3.9 6.193 7.57 6.193h6.04c3.669 0 6.88-2.676 7.568-6.193a2.319 2.319 0 0 0 1.606-2.217c0-.612-.23-1.147-.612-1.53.382-.381.612-.916.612-1.528.076-1.07-.612-1.912-1.606-2.217ZM58.448 55.39h6.04c2.829 0 5.275 1.911 5.964 4.587h-.306l-.153-.153a2.088 2.088 0 0 0-1.453-.611h-.459c-.535 0-1.07.229-1.452.611a.584.584 0 0 1-.382.153h-.46a.584.584 0 0 1-.381-.153 2.089 2.089 0 0 0-1.453-.611h-.459c-.535 0-1.07.229-1.452.611a.584.584 0 0 1-.383.153h-.458a.584.584 0 0 1-.383-.153 2.089 2.089 0 0 0-1.452-.611h-.46c-.534 0-1.07.229-1.452.611a.584.584 0 0 1-.382.153h-.459a.584.584 0 0 1-.382-.153 2.088 2.088 0 0 0-1.453-.611h-.458c-.535 0-1.07.229-1.453.611l-.153.153h-.306c.765-2.676 3.211-4.587 6.04-4.587Zm-6.88 6.116h1.834l.612-.611a.584.584 0 0 1 .382-.153h.459c.153 0 .306.076.382.153.382.382.918.611 1.453.611h.459c.535 0 1.07-.23 1.452-.611a.584.584 0 0 1 .382-.153h.46c.152 0 .305.076.381.153.383.382.918.611 1.453.611h.459c.535 0 1.07-.23 1.452-.611a.584.584 0 0 1 .383-.153h.458c.153 0 .306.076.383.153.382.382.917.611 1.452.611h.459c.535 0 1.07-.23 1.453-.611a.584.584 0 0 1 .382-.153h.459c.153 0 .305.076.382.153l.612.611h1.834c.46 0 .765.306.765.765s-.306.764-.764.764H51.566c-.458 0-.764-.305-.764-.764s.306-.765.764-.765Zm12.92 10.704h-6.04c-2.829 0-5.275-1.911-5.963-4.587h18.043c-.765 2.675-3.211 4.587-6.04 4.587Zm6.957-6.116H51.567c-.458 0-.764-.306-.764-.765s.306-.764.764-.764h19.878c.46 0 .765.305.765.764a.766.766 0 0 1-.764.765ZM39.946 50.88a2.319 2.319 0 0 0-2.217-1.606c-.611 0-1.147.23-1.529.612a2.135 2.135 0 0 0-1.529-.612c-1.07 0-1.911.688-2.217 1.605-3.594.689-6.193 3.9-6.193 7.57v6.04c0 3.67 2.676 6.88 6.193 7.568a2.319 2.319 0 0 0 2.217 1.606c.612 0 1.147-.23 1.53-.612.381.382.916.612 1.528.612 1.07 0 1.912-.688 2.217-1.606 3.594-.688 6.193-3.899 6.193-7.569v-6.04c.077-3.67-2.6-6.88-6.193-7.569Zm-12.08 13.608v-6.04c0-2.828 1.912-5.275 4.588-5.963v.306l-.153.153a2.089 2.089 0 0 0-.612 1.452v.46c0 .534.23 1.07.612 1.452.076.076.153.23.153.382v.459a.584.584 0 0 1-.153.382 2.089 2.089 0 0 0-.612 1.453v.458c0 .535.23 1.07.612 1.453.076.076.153.23.153.382v.459a.584.584 0 0 1-.153.382 2.088 2.088 0 0 0-.612 1.453v.459c0 .535.23 1.07.612 1.452.076.077.153.23.153.383v.458a.584.584 0 0 1-.153.383 2.089 2.089 0 0 0-.612 1.452v.459c0 .535.23 1.07.612 1.453l.153.152v.306c-2.676-.764-4.588-3.21-4.588-6.04Zm6.881 7.722c-.458 0-.764-.306-.764-.764V69.61l-.612-.612a.584.584 0 0 1-.153-.382v-.459c0-.153.077-.306.153-.382.383-.382.612-.918.612-1.453v-.458c0-.536-.23-1.07-.612-1.453a.584.584 0 0 1-.153-.382v-.46c0-.152.077-.305.153-.381.383-.383.612-.918.612-1.453v-.459c0-.535-.23-1.07-.612-1.452a.584.584 0 0 1-.153-.383v-.458c0-.153.077-.306.153-.383.383-.382.612-.917.612-1.452v-.459c0-.535-.23-1.07-.612-1.453a.584.584 0 0 1-.153-.382v-.459c0-.153.077-.305.153-.382l.612-.611v-1.835c0-.46.306-.765.764-.765.46 0 .765.306.765.765v19.878c0 .382-.382.764-.765.764Zm3.823-.764c0 .458-.306.764-.764.764-.46 0-.765-.306-.765-.764V51.568c0-.46.306-.765.765-.765.458 0 .764.306.764.765v19.878Zm6.117-6.958c0 2.83-1.912 5.276-4.588 5.964V52.485c2.676.688 4.588 3.135 4.588 5.964v6.04ZM67.47 27.943a2.319 2.319 0 0 0-2.217-1.606c-.612 0-1.147.23-1.53.612a2.135 2.135 0 0 0-1.529-.612c-1.07 0-1.911.689-2.217 1.606-3.593.688-6.193 3.9-6.193 7.569v6.04c0 3.67 2.676 6.88 6.193 7.569a2.319 2.319 0 0 0 2.217 1.605c.612 0 1.147-.229 1.53-.611.382.382.917.611 1.529.611 1.07 0 1.911-.688 2.217-1.605 3.593-.688 6.193-3.9 6.193-7.57v-6.04c.076-3.669-2.6-6.88-6.193-7.568ZM55.39 41.552v-6.04c0-2.829 1.911-5.275 4.587-5.963v18.043c-2.676-.765-4.587-3.211-4.587-6.04Zm6.88 7.722c-.458 0-.764-.306-.764-.765V28.631c0-.459.306-.765.765-.765s.764.306.764.765v19.878c0 .383-.382.765-.764.765Zm3.824-2.6v1.835c0 .459-.306.765-.765.765s-.764-.306-.764-.765V28.631c0-.459.305-.765.764-.765s.765.306.765.765v1.835l.611.612c.077.076.153.229.153.382v.459a.583.583 0 0 1-.153.382 2.09 2.09 0 0 0-.611 1.453v.458c0 .535.229 1.07.611 1.453.077.076.153.23.153.382v.459a.584.584 0 0 1-.153.382 2.09 2.09 0 0 0-.611 1.453v.459c0 .535.229 1.07.611 1.452.077.077.153.23.153.382v.46a.584.584 0 0 1-.153.381 2.089 2.089 0 0 0-.611 1.453v.459c0 .535.229 1.07.611 1.452.077.077.153.23.153.383v.458a.583.583 0 0 1-.153.383l-.611.611Zm6.116-5.122c0 2.829-1.911 5.275-4.587 5.963v-.306l.153-.152c.382-.383.611-.918.611-1.453v-.459c0-.535-.23-1.07-.611-1.452a.584.584 0 0 1-.153-.383v-.458c0-.153.076-.306.153-.383.382-.382.611-.917.611-1.452v-.46c0-.534-.23-1.07-.611-1.452a.584.584 0 0 1-.153-.382v-.459c0-.153.076-.306.153-.382.382-.382.611-.917.611-1.453v-.458c0-.535-.23-1.07-.611-1.453a.583.583 0 0 1-.153-.382v-.459c0-.153.076-.306.153-.382.382-.383.611-.918.611-1.453v-.459c0-.535-.23-1.07-.611-1.452l-.153-.153v-.306c2.676.688 4.587 3.135 4.587 5.963v6.117Z"/></g></svg>