<svg xmlns="http://www.w3.org/2000/svg" width="100" height="100" fill="none"><circle cx="50" cy="50" r="50" fill="#fff"/><path fill="#E58383" d="m28.333 78.605.917 2.631c.167.51.75.764 1.75.764h38c1 0 1.583-.255 1.75-.764l.917-2.631c1.25 0 2.333-1.104 2.333-2.377V75.04c0-1.273-1.083-2.377-2.333-2.377H70.5v-24.7c0-.51-.333-.849-.833-.849h-2V30.647c0-.51-.334-.849-.834-.849h-5.916v-10.95c0-.508-.334-.848-.834-.848H39.917c-.5 0-.834.34-.834.849v10.95h-5.916c-.5 0-.834.339-.834.848V47.2h-2c-.5 0-.833.34-.833.849v24.7h-1.167c-1.25 0-2.333 1.103-2.333 2.377v1.103c.083 1.273 1.083 2.377 2.333 2.377Zm40.75 1.697H30.667l-.584-1.697h39.834l-.584 1.697h-.25Zm-7.25-18.419c-.5 0-.833.34-.833.85 0 1.782-1.417 3.14-3.083 3.14-1.75 0-3.084-1.443-3.084-3.14 0-.51-.333-.85-.833-.85-.5 0-.833.34-.833.85 0 1.782-1.417 3.14-3.084 3.14-1.666 0-3.083-1.443-3.083-3.14 0-.51-.333-.85-.833-.85-.5 0-.834.34-.834.85 0 1.782-1.416 3.14-3.083 3.14-1.75 0-3.083-1.443-3.083-3.14 0-.51-.334-.85-.834-.85-.5 0-.833.34-.833.85 0 1.782-1.417 3.14-3.083 3.14-1.75 0-3.084-1.443-3.084-3.14v-4.584a4.527 4.527 0 0 0 3.084 1.188 4.644 4.644 0 0 0 3.916-2.122c.834 1.273 2.334 2.122 3.917 2.122a4.644 4.644 0 0 0 3.917-2.122c.833 1.273 2.333 2.122 3.916 2.122 1.584 0 3.084-.849 3.917-2.122.833 1.273 2.333 2.122 3.917 2.122a4.644 4.644 0 0 0 3.916-2.122c.834 1.273 2.334 2.122 3.917 2.122 1.167 0 2.25-.425 3.083-1.189v4.669c0 1.783-1.416 3.14-3.083 3.14-1.75 0-3.083-1.442-3.083-3.14 0-.51-.334-.934-.834-.934Zm-2.5-42.185v3.565c0 1.443-1.166 2.546-2.5 2.546-1.333 0-2.5-1.188-2.5-2.546 0-.51-.333-.85-.833-.85-.5 0-.833.34-.833.85 0 1.443-1.167 2.546-2.5 2.546-1.417 0-2.5-1.188-2.5-2.546 0-.51-.334-.85-.834-.85-.5 0-.833.34-.833.85 0 1.443-1.167 2.546-2.5 2.546S41 24.621 41 23.263v-3.565h18.333Zm-18.583 6.96a3.806 3.806 0 0 0 2.5.933c1.417 0 2.583-.678 3.333-1.782.75 1.019 2 1.782 3.334 1.782 1.416 0 2.583-.678 3.333-1.782.75 1.019 2 1.782 3.333 1.782.917 0 1.834-.339 2.5-.848v3.14H40.75v-3.225ZM66 31.496v6.366c0 1.443-1.167 2.546-2.5 2.546S61 39.22 61 37.862c0-.51-.333-.849-.833-.849-.5 0-.834.34-.834.85 0 1.442-1.166 2.545-2.5 2.545-1.333 0-2.5-1.188-2.5-2.546 0-.51-.333-.849-.833-.849-.5 0-.833.34-.833.85 0 1.442-1.167 2.545-2.5 2.545-1.417 0-2.5-1.188-2.5-2.546 0-.51-.334-.849-.834-.849-.5 0-.833.34-.833.85 0 1.442-1.167 2.545-2.5 2.545S41 39.22 41 37.862c0-.51-.333-.849-.833-.849-.5 0-.834.34-.834.85 0 1.442-1.166 2.545-2.5 2.545-1.333 0-2.5-1.188-2.5-2.546v-6.281H66v-.085Zm-31.917 9.676a3.806 3.806 0 0 0 2.5.934c1.417 0 2.584-.679 3.334-1.782.75 1.018 2 1.782 3.333 1.782 1.417 0 2.583-.679 3.333-1.782.75 1.018 2 1.782 3.334 1.782 1.416 0 2.583-.679 3.333-1.782.75 1.018 2 1.782 3.333 1.782a4.05 4.05 0 0 0 3.334-1.782c.75 1.018 2 1.782 3.333 1.782.917 0 1.833-.34 2.5-.849V47.2H34.083v-6.027Zm34.834 7.64v5.602c0 1.782-1.417 3.14-3.084 3.14-1.75 0-3.083-1.443-3.083-3.14 0-.51-.333-.849-.833-.849-.5 0-.834.34-.834.849 0 1.782-1.416 3.14-3.083 3.14-1.75 0-3.083-1.443-3.083-3.14 0-.51-.334-.849-.834-.849-.5 0-.833.34-.833.849 0 1.782-1.417 3.14-3.083 3.14-1.667 0-3.084-1.443-3.084-3.14 0-.51-.333-.849-.833-.849-.5 0-.833.34-.833.849 0 1.782-1.417 3.14-3.084 3.14-1.75 0-3.083-1.443-3.083-3.14 0-.51-.333-.849-.833-.849-.5 0-.834.34-.834.849 0 1.782-1.416 3.14-3.083 3.14-1.75 0-3.083-1.443-3.083-3.14v-5.517h37.5v-.085Zm-37.75 17.57a4.527 4.527 0 0 0 3.083 1.188 4.645 4.645 0 0 0 3.917-2.122C39 66.722 40.5 67.57 42.083 67.57A4.644 4.644 0 0 0 46 65.448c.833 1.274 2.333 2.122 3.917 2.122 1.583 0 3.083-.848 3.916-2.122.834 1.274 2.334 2.122 3.917 2.122a4.645 4.645 0 0 0 3.917-2.122C62.5 66.722 64 67.57 65.583 67.57c1.167 0 2.25-.424 3.084-1.188v6.281h-37.5v-6.281Zm-3.417 8.743c0-.34.333-.68.667-.68H71.75c.333 0 .667.34.667.68v1.103c0 .34-.334.68-.667.68H28.417c-.334 0-.667-.34-.667-.68v-1.103Z"/></svg>