<svg xmlns="http://www.w3.org/2000/svg" width="32" height="32" fill="none"><path fill="#E9D4C6" d="M23.325 21.694c-.813 5.441-3.794 8.858-7.724 8.921-.88.38-1.83.633-2.778.633-3.795 0-7.589-3.037-10.502-8.289C-1.61 15.873.627 5.054.694 4.611c.068-.38.542-.633.949-.443.271.127 4.2 1.772 8.199 4.619 1.422-2.847 3.252-5.568 5.014-7.656.135-.127.338-.253.542-.253.203 0 .406.126.542.253 1.152 1.329 2.778 3.606 4.133 6.01 4.54-2.783 10.028-3.922 10.706-4.049h.067c.068 0 .814-.063.814.57 0 .38-.136 9.617-4.676 14.805-1.22 1.329-2.44 2.405-3.659 3.227Z"/><path fill="#000" d="M23.325 21.694c-.813 5.441-3.794 8.858-7.724 8.921-.88.38-1.83.633-2.778.633-3.795 0-7.589-3.037-10.502-8.289C-1.61 15.873.627 5.054.694 4.611c.068-.38.542-.633.949-.443.271.127 4.2 1.772 8.199 4.619 1.422-2.847 3.252-5.568 5.014-7.656.135-.127.338-.253.542-.253.203 0 .406.126.542.253 1.152 1.329 2.778 3.606 4.133 6.01 4.54-2.783 10.028-3.922 10.706-4.049h.067c.068 0 .814-.063.814.57 0 .38-.136 9.617-4.676 14.805-1.22 1.329-2.44 2.405-3.659 3.227Zm2.575-4.05c2.44-2.783 3.524-6.96 3.998-9.996-1.355 2.72-3.524 6.517-6.37 9.617.068.823.068 1.772 0 2.657.814-.632 1.559-1.392 2.372-2.277Zm-2.575-2.15c2.914-3.544 5.082-7.846 6.166-10.187-1.897 1.202-4.81 3.227-7.52 5.694.609 1.392 1.083 3.037 1.354 4.492Zm-5.42 6.896c.813-5.82-.61-13.034-2.44-18.728v-.063c-2.303 7.15-4.675 19.36 0 25.371 0-.063 1.83-2.088 2.44-6.58Zm-14.433 0c2.575 4.682 5.828 7.403 9.012 7.593-1.897-.95-3.184-2.721-3.998-4.683-.203-.569-4.268-4.935-6.979-16.576-.338 3.796-.338 9.49 1.965 13.666Zm4.676-9.49c-2.169-2.721-4.337-4.936-5.76-6.328.678 3.1 2.169 9.301 5.014 14.553-.406-3.227-.135-5.632.746-8.226ZM4.76 7.141c1.152 1.202 2.507 2.657 3.862 4.302.203-.506.406-1.012.61-1.455-1.49-1.202-3.117-2.151-4.472-2.847Zm3.862 10.946c0 4.112 1.084 9.807 5.285 11.072-4.269-6.2-2.371-17.083-.271-24.17-2.44 3.544-5.014 8.858-5.014 13.098Zm8.334 11.072c5.285-1.518 6.302-10.693 4.201-16.577-.948-2.594-2.371-5.188-3.862-7.466 2.033 7.086 3.862 17.842-.339 24.043Zm4.472-19.424a51.863 51.863 0 0 1 5.624-4.366c-1.897.633-4.269 1.582-6.302 2.847 0 .127.407.823.678 1.519Z"/></svg>