<svg xmlns="http://www.w3.org/2000/svg" width="24" height="24" fill="none"><circle cx="12" cy="12" r="12" fill="#E7426A"/><path fill="#fff" d="M11.12 11.09c-.45.46-1.03.69-1.74.69s-1.29-.23-1.74-.69c-.44-.47-.66-1.055-.66-1.755 0-.71.224-1.3.674-1.77.45-.48 1.025-.72 1.725-.72.71 0 1.29.24 1.74.72.46.47.69 1.06.69 1.77 0 .7-.23 1.285-.69 1.755ZM9.243 17h-.81l6.39-10.005h.825L9.244 17Zm7.095-.51c-.45.46-1.03.69-1.74.69s-1.29-.23-1.74-.69c-.44-.47-.66-1.055-.66-1.755 0-.71.225-1.3.675-1.77.45-.48 1.025-.72 1.725-.72.71 0 1.29.24 1.74.72.45.47.675 1.06.675 1.77 0 .7-.225 1.285-.675 1.755ZM8.3 10.55c.28.32.64.48 1.08.48.44 0 .805-.16 1.095-.48.29-.33.435-.735.435-1.215 0-.5-.145-.91-.435-1.23-.28-.33-.645-.495-1.095-.495-.44 0-.8.165-1.08.495-.28.32-.42.73-.42 1.23 0 .48.14.885.42 1.215Zm5.205 5.4c.29.32.655.48 1.095.48.44 0 .805-.16 1.095-.48.29-.33.435-.735.435-1.215 0-.5-.145-.91-.435-1.23-.28-.33-.645-.495-1.095-.495-.45 0-.815.165-1.095.495-.28.32-.42.73-.42 1.23 0 .48.14.885.42 1.215Z"/></svg>