<svg width="24" height="24" fill="none" xmlns="http://www.w3.org/2000/svg"><path fill-rule="evenodd" clip-rule="evenodd" d="M11.343 17.453h1.007s.304-.033.46-.2c.142-.154.137-.442.137-.442s-.02-1.351.608-1.55c.618-.196 1.412 1.305 2.253 1.883.636.437 1.12.34 1.12.34l2.249-.03s1.177-.073.619-.998c-.046-.076-.325-.684-1.673-1.935-1.41-1.31-1.222-1.098.477-3.362 1.035-1.38 1.449-2.221 1.32-2.582-.124-.343-.885-.252-.885-.252l-2.532.015s-.188-.025-.327.058c-.136.082-.224.272-.224.272s-.4 1.067-.935 1.975c-1.128 1.915-1.579 2.016-1.763 1.897-.43-.277-.322-1.114-.322-1.708 0-1.855.281-2.63-.548-2.83-.276-.066-.478-.11-1.182-.117-.904-.01-1.669.003-2.102.215-.288.141-.51.455-.375.473.168.023.547.103.748.376.26.353.25 1.146.25 1.146s.15 2.185-.348 2.457c-.342.186-.81-.194-1.815-1.932-.515-.89-.904-1.873-.904-1.873s-.075-.184-.21-.283c-.162-.119-.388-.157-.388-.157l-2.407.016s-.361.01-.494.167c-.118.14-.01.429-.01.429s1.885 4.408 4.018 6.63c1.956 2.036 4.178 1.902 4.178 1.902Z" fill="#000"/></svg>